<svg xmlns="http://www.w3.org/2000/svg" viewBox="0 0 2078.32 1028"><defs><style>.cls-1{fill:#ed5d63;}.cls-2{fill:#393353;}.cls-3{fill:#4a7be7;}.cls-4{fill:#fcc600;}.cls-5{fill:#9bd3f4;}.cls-6{opacity:0.34;}.cls-7{fill:#f7e9d0;}.cls-8{fill:#fff;}.cls-9{fill:#eee;}</style></defs><title>banner</title><g id="Capa_2" data-name="Capa 2"><g id="Header"><polygon class="cls-1" points="0 613.36 983.38 515.84 820.18 557.77 0 671.54 0 613.36"/><polygon class="cls-2" points="1748.59 424.94 0 1028 3.54 670.14 1748.59 424.94 1748.59 424.94"/><path class="cls-3" d="M543.94,242a26.45,26.45,0,0,1-46.63-17.09H469.47a54.31,54.31,0,0,0,74.5,50.4V242Z"/><path class="cls-1" d="M523.76,198.43a26.39,26.39,0,0,1,20.18,9.36l0,0V174.48a54.31,54.31,0,0,0-74.5,50.4h27.85A26.45,26.45,0,0,1,523.76,198.43Z"/><circle class="cls-2" cx="593.56" cy="224.88" r="22.87"/><circle class="cls-3" cx="752.15" cy="224.88" r="30.42"/><path class="cls-4" d="M839,170.58a31.35,31.35,0,0,1,0,62.7"/><rect class="cls-4" x="649.87" y="194.7" width="27.32" height="84.47"/><rect class="cls-2" x="806.95" y="170.58" width="27.32" height="108.59"/><rect class="cls-1" x="681.66" y="252.34" width="27.32" height="27.32"/><polyline class="cls-1" points="879.98 279.66 838.95 279.66 838.95 238.63"/><circle class="cls-3" cx="900.88" cy="224.88" r="6.89"/><rect class="cls-4" x="534.8" y="109.49" width="18.35" height="18.35" transform="translate(243.23 -349.89) rotate(45)"/><rect class="cls-1" x="620.43" y="305.67" width="18.35" height="18.35" transform="translate(1259.2 629.69) rotate(180)"/><path class="cls-2" d="M458.69,158.68h-1.94l-.35-4.6a8.82,8.82,0,0,0-3.15-2.32,10.68,10.68,0,0,0-4.48-.89,9.87,9.87,0,0,0-8.08,3.7,14.68,14.68,0,0,0-3,9.55v.44a14.87,14.87,0,0,0,3,9.57,9.5,9.5,0,0,0,7.8,3.72,11.72,11.72,0,0,0,4.66-.9,8.59,8.59,0,0,0,3.28-2.31l.35-4.6h1.94v5.33a10.71,10.71,0,0,1-4.14,3.27,13.84,13.84,0,0,1-6.09,1.31,12,12,0,0,1-9.54-4.32,16.41,16.41,0,0,1-3.71-11.07v-.4a16.47,16.47,0,0,1,3.7-11.09,12.12,12.12,0,0,1,9.68-4.32,13.35,13.35,0,0,1,6,1.32,10.89,10.89,0,0,1,4.07,3.28Z"/><path class="cls-2" d="M554.38,151v-1.85h9.29V151l-3.4.27v26.11l3.4.27v1.83h-9.29v-1.83l3.4-.27V151.3Z"/><path class="cls-2" d="M663.91,149.18q4.73,0,7.37,2a7,7,0,0,1,2.64,6,6.5,6.5,0,0,1-1.32,4.06,6.79,6.79,0,0,1-3.59,2.4,7.32,7.32,0,0,1,4.5,2.6,7.43,7.43,0,0,1,1.73,4.85,7.66,7.66,0,0,1-2.64,6.25,10.69,10.69,0,0,1-7.05,2.19H651.66v-1.83l3.4-.27V151.3l-3.4-.27v-1.85h12.25Zm-6.38,13.61h7a7.94,7.94,0,0,0,5.09-1.45,5.14,5.14,0,0,0,1.8-4.26,5.08,5.08,0,0,0-1.92-4.32,9.16,9.16,0,0,0-5.58-1.45h-6.38Zm0,2.1v12.52h8a7.8,7.8,0,0,0,5.27-1.66,5.8,5.8,0,0,0,1.92-4.64,6.09,6.09,0,0,0-1.74-4.48,6.82,6.82,0,0,0-5.05-1.75Z"/><path class="cls-2" d="M795.52,164.82H783.08v12.58h14.33l.19-4.54h2.21v6.65H777.2v-1.83l3.4-.27V151.3l-3.4-.27v-1.85h22.5v6.67H797.5l-.19-4.54H783.08v11.4h12.44Z"/><path class="cls-2" d="M907.92,149.2q4.88,0,7.49,2.13a7.46,7.46,0,0,1,2.61,6.15,7,7,0,0,1-1.4,4.27,7.82,7.82,0,0,1-3.94,2.75,6.61,6.61,0,0,1,4.05,2.53,8,8,0,0,1,1.24,4.59v2.77a4.45,4.45,0,0,0,.5,2.38,1.84,1.84,0,0,0,1.52.83l1,.06v1.85h-1.58a3.27,3.27,0,0,1-3.08-1.5,7.17,7.17,0,0,1-.88-3.67v-2.69a5.63,5.63,0,0,0-1.76-4.37,7.22,7.22,0,0,0-4.91-1.68h-7.63v11.79l3.4.29v1.81h-9.27V177.7l3.4-.29V151.32l-3.4-.29V149.2Zm-6.73,14.29h6.44q4.1,0,6-1.65a5.53,5.53,0,0,0,1.9-4.4,5.6,5.6,0,0,0-1.9-4.52q-1.9-1.6-5.71-1.6h-6.73Z"/><polygon class="cls-1" points="1744.79 426.53 1049.96 528.33 1052.81 0 1939.79 0 1744.79 426.53"/><polygon class="cls-1" points="1238.23 349.22 1050.35 348.11 1049.96 0 1238.62 0 1238.23 349.22"/><path class="cls-2" d="M1052.3,574.58V350.49h19.19v12.89h41.23v-22h5V324h9.24v16.68h6.4v37.9h30.55V308.8l10.67-11.38,10.32,11v36h38.74v-50h12.8L1269.83,330v24.26h13.51v12.13h35.78l3-38.66h19.11l-.37-105.47,10.81,11,14.74,126.31h34.23V327H1422l17.42-18.57c1.78-1.9,19.55,0,19.55,0v42.83h59.71l25.24-26.91h21v33h38.39v-37.9h8.53V288.33h19.9v32.6H1643v47.76h7.11v-28h12.8V370.2H1680V330.78h19.9v60.64h5.69V349.74h72.2l-33,76.8Z"/><polygon class="cls-2" points="1336.47 228.14 1337.24 329.58 1324.17 329.71 1327.34 256 1336.47 228.14"/><path class="cls-2" d="M903.29,346.44s67.83-8,99.53-3.61l31.7,4.36L969.17,560.37l-155.5-38.26s32.59-127.84,33-143.44C847,364.5,882.72,347.78,903.29,346.44Z"/><polygon class="cls-2" points="995.85 512.72 1020.79 373.03 1049.96 373.03 1053.81 513.16 995.85 512.72"/><path class="cls-4" d="M927.27,677.49s50.77,4.68,61.46,3.34,59.08-13.58,59.08-13.58l5.94-53.89s4.68-27.83-63.24-10.24c-42.9,11.11-68.72-18.87-118.54,17.73-13.61,10-12.42,48.14-12.42,48.14Z"/><polygon class="cls-2" points="797.01 597.78 834.76 587.2 905.23 603.12 902.78 626.05 891.83 647.6 845.33 661.54 798.67 626.05 797.01 597.78"/><path class="cls-1" d="M884.52,598.45v-16A11.25,11.25,0,0,1,891.66,572c16.57-6.52,57-23.61,62.33-49.44,5.47-26.46,37.85-148.74,37.85-148.74s9.35-29.84,46.76-27.17c26.65,1.9,661.11,95.51,661.11,95.51l-5.92,2.05-655.15-62.6a9.83,9.83,0,0,0-10.86,8.23l-21,107.9a10.12,10.12,0,0,0,10.88,11.65l33.86-4.21L1053.09,614a25.25,25.25,0,0,1-5.13.75c-2.23,0-5.79-8.46-22.27-8.46S982,616.48,958,613.36c-17.3-2.24-49-4-64-4.85A10.08,10.08,0,0,1,884.52,598.45Z"/><path class="cls-5" d="M1017.43,492.27l15.39-81a2.82,2.82,0,0,1,2.77-2.29h4.36a3.17,3.17,0,0,1,3.17,3.11l1.62,78.78a5.25,5.25,0,0,1-4.84,5.34l-17.72,1.38A4.48,4.48,0,0,1,1017.43,492.27Z"/><path class="cls-4" d="M820.3,506.47l133.69,16s.89,25.38-25.83,37.85-44.1,18.26-69.48,13.36-34.92-5.79-38.39-14.7S807.29,530.05,820.3,506.47Z"/><path class="cls-1" d="M824,559v27.61S811.49,576,811,561.7s-1.78-33.4,1.34-47.65S844,378.67,844,378.67a20.76,20.76,0,0,1,9.8-13.42c3.31-2,12.11-1.9,12.11-1.9l-5.43,6s-8.64.69-12.47,13.81c-5.26,18-37,140.51-31.62,158.2C820,553.22,824,559,824,559Z"/><path class="cls-4" d="M860.47,369.32S872,351,905.9,344.44c48.7-9.41,109.88-.32,109.88-.32s-23.32,5.55-29.27,24.35l-60.57.41Z"/><path class="cls-2" d="M845.33,404.06l4.9-16.92s.95-13.46,18.7-13.81c45.42-.88,114.45.45,114.45.45l-8.61,31.86Z"/><path class="cls-5" d="M844.11,413.27l-19.27,82.17a5.27,5.27,0,0,0,4.46,6.43L853.74,505A11.23,11.23,0,0,0,867,497.71l24.2-84.81a3.79,3.79,0,0,0-3.64-4.83H850.68A6.75,6.75,0,0,0,844.11,413.27Z"/><path class="cls-5" d="M902.21,408.11a5.67,5.67,0,0,0-5.51,4.12l-24.46,86.47c-1.27,4.44,2,8.9,6.86,9.36l52.73,5c9.15.69,17.45-5,19.51-13.46l20.12-83.73a5.75,5.75,0,0,0-5.53-7.1Z"/><ellipse class="cls-2" cx="902.78" cy="552.91" rx="5.79" ry="7.46"/><ellipse class="cls-2" cx="823.71" cy="538.3" rx="6.48" ry="3.35" transform="translate(255.13 1341.4) rotate(-87.87)"/><ellipse class="cls-2" cx="820.65" cy="524.44" rx="6.03" ry="2.63" transform="translate(266.04 1325.01) rotate(-87.87)"/><ellipse class="cls-2" cx="919.38" cy="544.8" rx="8.77" ry="6.43" transform="translate(231.36 1362.53) rotate(-80.57)"/><path class="cls-2" d="M832.09,522.64s-5.91,29.94-.56,31.61,45,10.13,45,10.13,6.68,1.78,8-8.46,3.56-23.16,3.56-23.16Z"/><path class="cls-4" d="M1064.23,658.57l56.94-19.41s-2.41-7.1,14.51-12.44,342.46-116.23,342.46-116.23L1663.79,447l-37.35,9.63L1096.83,609.19Z"/><path class="cls-5" d="M826.63,560.37l61.46,13.85v31.91s-38.3-8.34-56.56-15S826.63,560.37,826.63,560.37Z"/><polygon class="cls-2" points="1049.96 383.12 1626 437.9 1626 454.6 1053.74 613.36 1049.96 383.12"/><path class="cls-2" d="M1196.81,607.77s.72,10.29,7.17,8.35S1305.17,578,1305.17,578l.46-10Z"/><polygon class="cls-2" points="1362.36 547.01 1362.36 554.58 1465.23 519.4 1465.23 512.72 1362.36 547.01"/><polygon class="cls-2" points="1478.15 507.82 1478.15 515.84 1626 463.73 1626 460.13 1478.15 507.82"/><polygon class="cls-5" points="867.96 621.38 898.08 611.69 974.03 620.04 915.69 635.41 867.96 621.38"/><polygon class="cls-5" points="773.63 586.64 815.51 576.07 826.92 587.42 793.01 595.78 773.63 586.64"/><path class="cls-1" d="M774,586.2v20.14c0,5.26,1.5,10.2,5.74,13.31l5.21,3.3a5.62,5.62,0,0,0,8.95-4.55c0-12.4-.85-22.63-.85-22.63Z"/><path class="cls-2" d="M868,622.39v29.74a15,15,0,0,0,13.62,14.94l33.67,5.75.45-38.08Z"/><path class="cls-1" d="M915.37,634.74l-.69,38.08,45.12-7.75c10.26-1.65,14.47-11,13.48-21.32L974,620Z"/><polygon class="cls-4" points="797.67 616.03 856.47 598.44 887.94 605.63 820.65 626.05 797.67 616.03"/><polygon class="cls-1" points="797.87 616.06 797.87 656.78 820.65 670.14 821.73 626.05 797.87 616.06"/><path class="cls-2" d="M1114.4,615.54l13.33,11.63a20,20,0,0,0,20.06,3.72l30.45-11.13a24.1,24.1,0,0,0,12.05-9.68l19.76-31L1105.4,610.33Z"/><polygon class="cls-2" points="1264.83 560.37 1264.83 578.14 1288.43 570.17 1288.43 552.91 1264.83 560.37"/><polygon class="cls-2" points="1314.26 544.8 1314.26 571.95 1357.46 555.58 1357.46 532.31 1314.26 544.8"/><polygon class="cls-2" points="821.04 670.14 849.34 660.12 849 618.04 821.04 626.05 821.04 670.14"/><path class="cls-1" d="M1047.81,667.25l19.05-6.68a41.32,41.32,0,0,0,26.73-23.44l3.48-8.1a42.27,42.27,0,0,1,27.07-23.9l544.33-159.67-20.38,3.71L1053.75,613.36Z"/><path class="cls-4" d="M1059.53,406.42v84.17a5.61,5.61,0,0,0,6,5.65l17.85-1.38a6.08,6.08,0,0,0,5.56-6.11v-83a7.87,7.87,0,0,0-7.79-7.94h-14.47C1062.72,397.82,1059.53,402.41,1059.53,406.42Z"/><path class="cls-4" d="M1237.67,414.87v59.8a5.44,5.44,0,0,0,5.88,5.42l31.87-2.59a5.44,5.44,0,0,0,5-5.42V417.53a5.44,5.44,0,0,0-5-5.42l-31.87-2.66A5.44,5.44,0,0,0,1237.67,414.87Z"/><path class="cls-5" d="M1285.76,417v54.42a4.22,4.22,0,0,0,4.57,4.21l34.3-2.79a4.22,4.22,0,0,0,3.88-4.21V419.82a4.22,4.22,0,0,0-3.87-4.21l-34.3-2.86A4.22,4.22,0,0,0,1285.76,417Z"/><path class="cls-1" d="M1333.85,423v43.59a5.51,5.51,0,0,0,6,5.49l30.4-2.55a5.51,5.51,0,0,0,5-5.49V425.59a5.51,5.51,0,0,0-5-5.49l-30.4-2.61A5.51,5.51,0,0,0,1333.85,423Z"/><path class="cls-4" d="M1381.26,425.61v37.12c0,2.43,1.78,4.37,3.9,4.25l28.71-1.7a4,4,0,0,0,3.52-4.25V428.44a4.07,4.07,0,0,0-3.39-4.24l-28.71-2.83C1383.12,421.16,1381.26,423.12,1381.26,425.61Z"/><path class="cls-5" d="M1423.37,429.21v31.14a2.68,2.68,0,0,0,2.92,2.67l173.16-11.69c1.38-.12,84.31-3.7,84.31-3.7,0-1.4,4.69-.69,3.29-.79l-260.8-20.3A2.68,2.68,0,0,0,1423.37,429.21Z"/><path class="cls-1" d="M1095.95,416.06l1.26,67.1a8.87,8.87,0,0,0,9.66,8.67l116.94-10.53a8.87,8.87,0,0,0,8.07-8.83V417.13a8.87,8.87,0,0,0-8.15-8.84l-109.95-9A16.49,16.49,0,0,0,1095.95,416.06Z"/><polygon class="cls-4" points="1050.74 348.11 1050.74 377 1699.71 442.12 1710.92 438.72 1050.74 348.11"/><g class="cls-6"><path class="cls-7" d="M1280.57,229c-1.91-2.1-4-2.44-6.77-2.47-2.5,0-3.82.49-6.24-1.08-1.39-.9-2.3-2.33-3.83-3.1-3.17-1.58-6.36-.65-9.67-.26-4.64.55-11.45-1.26-15-4.55-2.39-2.22-.58-5.45-2.47-8.06-1.51-2.07-4-2.73-6.48-2.69-5.56.09-10.11,3.4-12.91,7.87a8.24,8.24,0,0,0-4.51-.41c-3-1.68-6.67-1.21-9.72.79-2.81,1.84-4.53,4.84-7.08,7s-5.18,2-8.45,2.08-8,2.22-6.11,6.34c1.25,2.77,5.48,2.75,8,3,8.54.92,17.12,1.53,25.71,1.89a408.86,408.86,0,0,0,41.8-.45,154.12,154.12,0,0,0,21.73-1.18C1281,233.4,1282.31,230.87,1280.57,229Z"/><path class="cls-7" d="M1580.58,155.2c-12.26-6.41-24.51-11.5-38.12-14.2-7-1.39-12.34-3-15.76-9.8-3-5.89-5.06-12.12-8.39-17.85-5.07-8.75-12.1-16.41-21.95-19.61-8.14-2.64-17.2-2.21-24.23,3-7.72,5.77-9.15,15.2-14.59,22.55a10,10,0,0,1-5.09,3.69c-19.43-4.14-43.83-.5-52.75,16.82-9.21,2.38-19.17,10.78-25.06,15.4-13.75,10.78-2.81,27.67,13.37,23.85,7.47-1.76,13.17-5,21.2-4.41,7.17.51,14.07,2.87,21.07,4.39a245.47,245.47,0,0,0,40.22,5.11c27.33,1.32,54.63-1.25,81.79-4.17a6.35,6.35,0,0,0,1.47.24l37.33,1.29a6.28,6.28,0,0,0,6.2-6.2C1597.42,164.66,1589.25,159.74,1580.58,155.2Z"/><path class="cls-7" d="M1652.94,257.73a14.76,14.76,0,0,0-10-5.73c-2.13-.22-5,.83-6.92-.52-1.62-1.15-2.61-3.84-4.28-5.16-4.63-3.65-11.14-2.6-13.52,2.1a29.14,29.14,0,0,0-19-1.2c-6.49,1.87-18.79,12.08-23.88,5.25-3.16-4.24-5.25-6-11.16-5-8.79,1.46-17.81,6.16-25.47,10.51a3,3,0,0,0-1.37,1.75c-2.94,1.31-2.75,6.18,1.1,6.18a111.06,111.06,0,0,0,12.23-.71h82.82c6.12,0,14.67,1.77,19.49-2.91A3.33,3.33,0,0,0,1652.94,257.73Z"/></g><path class="cls-8" d="M1545.47,329.61c2.66-1.57-.37-5.88-2.87-4.81a3.94,3.94,0,0,0-1-3.62c-1.56-1.53-4.16-.66-5.21-1.25s-1.58-2.37-3.39-2.32-4.56,2.14-5.45,1.26-2.62-3.33-4.25-2.8-3.45.68-4.43.15-1.14-5-5.63-5.26-5.8,1.15-7.11-.15.41-3.83-1.54-4.08-1.33-2.86-2.83-2.27-.77-3.27-3.45-3.55a6.13,6.13,0,0,0-4.2.88s6.3-9.84-4.17-13.18-11.27,5.61-12.19,6c0,0-2-4.19-5.45-2.11a4.35,4.35,0,0,0-1.8,5.55,4.78,4.78,0,0,0-4.62-2.67c-3.2.35-1.53,2.95-2.73,3.12s-2.34-3.36-4.35-2.77-3.59,1.18-4.86-.77-1.92-4.63-4.58-3.8-4.16,1.24-6.55-.18-2.78-3.05-4.8-2.38a3,3,0,0,1-3.11-.47s-.31-10.44-9-10.68-10.94,4.68-13.48,2.63-1.05-5.26-6.19-5.27,6.46-11.38-6.36-13.83c0,0,8-10.06-2.2-15.35s-16,.86-16,.86-4-5.4-7.63-2.43c0,0,0-6.53-5.49-9.54a10.6,10.6,0,0,0-9.85-.59s2.41-4.86-4.74-6.56-8.32,2.79-8.32,2.79-8.46-7.2-11.13-.29-6.47.38-9.67,2.13-3,7.16-3,7.16a4.43,4.43,0,0,0-4.91-2.5c-3.78.47-4.66,4.26-4.66,4.26s-5.4-4.79-10.1-2.25a8.09,8.09,0,0,0-4.41,7.21s.15-1-4-1.77-2.82,3.71-2.82,3.71-.33-4.45-7.76-5.21-7.47,4.86-12.41,4-6.46-6.4-12.38-6.6-7,3.07-7,3.07-3.62-4.4-6.9-.08c0,0-2.59-5.11-8.27-2.25s-3.67,7.58-3.67,7.58-4.07-3.69-6.72-.1a5.77,5.77,0,0,0,.14,7s-4-4.25-5.76-1.4-6.34,0-6.4,1.89-5.45.71-5.59,3.51,9.86,3.47,9.46,5.73,5.48,4.16,5.48,4.16-.1,3.84,4.86,4.72,6.37-2.43,6.37-2.43-.13,7,11.08,7.9,10.13-7.68,10.13-7.68,1.36,7.31,8.08,6.88,8.45-3.21,8.45-3.21-1.53,11,14.51,15.29,21.62,1.13,21.62,1.13.45,6.49,9.83,8.12,13.89-1.55,13.89-1.55,4.51,8.67,12.38,9,10.51-3.72,10.51-3.72,4.43,7.44,11.27,2.7c0,0,.14,3.93,8.07,3.39s3.05.21,9.53,2.09a17.5,17.5,0,0,0,11.46-.47s2.68,7,12.21,6.43,6.88-8,6.88-8,4.06,4.38,8.08.15c0,0-.26,7.25,8.44,7.87s10.3-3.09,10.3-3.09-.11,8.25,9.42,6.15c0,0-2.07,4.52,5.52,5.15a8.73,8.73,0,0,0,9.67,2.57c5.89-2.19,3.86-6.66,3.86-6.66s2.13,3.82,5,.62c0,0-1.09,6.76,6,6.11s8.44-4.21,11.06-1.78,8.65,2,8.65,2-.88,3.62,5.84,4.88a16.5,16.5,0,0,0,11.54-2s1.69,3.69,6.35,1.48,5.28-3.57,5.28-3.57,1.25,3.74,7.34,2.74,5.64-3,5.64-3S1543.23,330.93,1545.47,329.61Z"/><path class="cls-9" d="M1297.71,257.28s-.07-.27-.09-.41Z"/><path class="cls-9" d="M1477.12,317.39v0Z"/><path class="cls-9" d="M1407.64,300.09s0-.09,0-.13Z"/><path class="cls-9" d="M1267.75,250.89a6.54,6.54,0,0,1-2.05-1.71A25.07,25.07,0,0,1,1267.75,250.89Z"/><path class="cls-9" d="M1208.1,259.21c.14-2.81,5.52-1.6,5.59-3.51s4.66,1,6.4-1.89c.8-1.31,2.09-1.12,3.24-.52-3.46-.5-1.13,2.61-1.13,2.61s-4.24-.78-2.16,3.69,5.14,2.45,5.14,2.45c2.1,5.59,8,4,8,4,5,4.1,7.48-.59,7.48-.59,4.47-.08,3.15-4.46,3.15-4.46,3.68,1.13,3.63-.88,3.63-.88a5.8,5.8,0,0,1-4.69-5.15c2,5,8.1,3.67,8.1,3.67a3,3,0,0,0,3.37,3s-5.27,3.19,1.19,4.45,3.31-6.94,3.31-6.94,2.17,3,4.58,2.54,2-3.11,2-3.11,1.95,1.1,4.83-1.49c1.84-1.65-.48-4.4-2.39-6.18,3.35,1.83,7.87,1,7.87,1,.19,4.4,3.72,4.09,3.72,4.09-2.4,2.35,1.52,5.82,1.52,5.82s-5.34,2.31-2.27,7.91,7.22,4.24,7.22,4.24-2.83,2.38,2.47,6.45a7.9,7.9,0,0,0,9.81.41c-.93,4.34,6.34,6.78,8.46,5.89s1.07-2.47.53-5,2.92-2.91,2.92-2.91c1-2.75-3.26-4.25-3.26-4.25.12-9.39-10.8-8.24-10.8-8.24,3.2-1.18,1.77-9.1,1.77-9.1l10.71,7.05c2.3,6.75,11.17,4.32,11.17,4.32-4.18,3.38,1.52,8.48,1.52,8.48-5.14,12.68,9.19,13.09,9.19,13.09-.32,7.61,9.62,8.68,9.62,8.68,5.52,4.29,9,.13,9,.13-2.5-1.87.28-4.48.28-4.48-4-2.62-2.6-8-2.6-8,1,5.57,8.6,6.39,8.6,6.39-1.61,7.95,5.36,5.61,5.36,5.61,4.48,4.88,6,.79,6,.79,7.54,1.51,7.25-3.75,7.25-3.75,5.51,1.56,7.07-2.52,7.07-2.52-.94,9.12,8.54,5.37,8.54,5.37s-6.21,5.89,6,6.88c11.16.9,12.28-5.21,12.28-5.21l4.22,2.05c3.3-4.54-6.42-6.37-6.42-6.37,8.62,1.91,13.55-7.77,13.55-7.77-1.56,7.44,3,7.63,3,7.63-3.48,6.45,2.85,6.56,2.85,6.56,2.76,6.41,8.88,3.61,8.88,3.61s3.66,2.55,6.33-.47-1.37-5.63-1.37-5.63c4.24,2.9,10.33-.6,10.33-.6-3,3.23.52,5.09.52,5.09s-3.89,4-.92,5.24,4.05-.38,4.05-.38a6.41,6.41,0,0,0,6.83.43c4-1.94.74-4.37.74-4.37,6.3,4.31,11.37,1.71,11.37,1.71s-4,2-2.92,5.72,4.28,1.52,4.28,1.52-4.26,3.22-.89,5.51,5-2.2,5-2.2-1.7,4.88,5.47,6c7.44,1.16,8-4.41,8-4.41l-3.85-3.59c4.59,4,11.53.25,11.53.25-.58,4.91,4.26,4.63,4.26,4.63-.09,4.33,4.63,4,4.63,4s-4,5.27,1.27,5.26,4.72-3.14,4.72-3.14,4.49,2.44,7.93,1.69,3.54-2.54,3.54-2.54a5.44,5.44,0,0,0,3.86,2.21c2.64.29,3.46-.9,3.46-.9s-.82,2.22,3.93,2.83,4.41-3.24,4.41-3.24,3.14,2.86,4.36,1.58a3.82,3.82,0,0,0,.73-2.5c1.2,1.15,1.7,3.13.08,4.09-2.23,1.32-3.26-.33-3.26-.33s.45,2-5.64,3-7.34-2.74-7.34-2.74-.63,1.36-5.28,3.57-6.35-1.48-6.35-1.48a16.5,16.5,0,0,1-11.54,2c-6.72-1.26-5.84-4.88-5.84-4.88s-6,.43-8.65-2-4,1.13-11.06,1.78-6-6.11-6-6.11c-2.92,3.2-5-.62-5-.62s2,4.47-3.86,6.66a8.73,8.73,0,0,1-9.67-2.57c-7.59-.63-5.52-5.15-5.52-5.15-9.54,2.1-9.42-6.15-9.42-6.15s-1.59,3.72-10.3,3.09-8.44-7.87-8.44-7.87c-4,4.24-8.08-.14-8.08-.14s2.65,7.46-6.88,8-12.21-6.43-12.21-6.43a17.5,17.5,0,0,1-11.46.47c-6.48-1.88-1.6-2.63-9.53-2.09s-8.07-3.39-8.07-3.39c-6.83,4.73-11.27-2.7-11.27-2.7s-2.63,4.09-10.51,3.72-12.38-9-12.38-9-4.5,3.18-13.89,1.55-9.83-8.12-9.83-8.12-5.59,3.12-21.62-1.13S1272,275.27,1272,275.27s-1.73,2.79-8.45,3.21-8.08-6.88-8.08-6.88,1.09,8.61-10.13,7.68-11.08-7.9-11.08-7.9-1.41,3.31-6.37,2.43-4.86-4.72-4.86-4.72-5.89-1.89-5.48-4.16S1208,262,1208.1,259.21Z"/><path class="cls-9" d="M1364.66,291.3s4-9.94,16-6.4c0,0,2.23-3,5.3-1.66,0,0-4.3-4.52,1.24-5.79,0,0,.78-6.21,8.53-2.24,0,0-1.94-3.31-8.68-3.67,0,0-3.86-5.64,1-7.39,0,0-2.28-5.66,2.25-6.62l-6.21-1.3s-.83,5-4.8,3.3c0,0,.15,5.75-5.72,4.65,0,0,.29,2.66-3.36,2.56,0,0,6.16,3,4.22,7,0,0-1.29,1.86-3.35-.73,0,0,2.15,2.18-1.38,3.81,0,0-1.22,4.57-5.89-.45,0,0,2,2,.06,5.91A14.72,14.72,0,0,1,1364.66,291.3Z"/><path class="cls-9" d="M1342.33,280.33c-.28.5-.48.78-.48.78C1342,280.84,1342.17,280.58,1342.33,280.33Z"/><path class="cls-9" d="M1351.75,275.25a8.69,8.69,0,0,1-1.22-.23A4.58,4.58,0,0,1,1351.75,275.25Z"/><path class="cls-9" d="M1317.45,254s8.86-2.42,6.57-8.62c0,0,2.64-3.71-2.28-6.21,0,0-.17-5.41,3-7.16a3.3,3.3,0,0,1,2.79,0s-4,0-3.05,3.88c0,0,4.23,1.07,3.94,3.62,0,0,4.39-1,6.24,2.08,0,0-3.51,3.67,3,6.14,0,0-5.24-1.29-5.89,3.43s5.23,3.55,5.23,3.55-.93,3.78,3.11,3.71a14.92,14.92,0,0,0,7.39-2.41,3.5,3.5,0,0,0,3.15,2.9s-3.45,3.47,1.26,5.78c0,0-3.46,1.28-1,4.45,0,0-4-1.64-4.17,2-.11,2.47,2.27,3.5,3.79,3.89-1.75-.12-5.08.41-8.2,5.31,1.18-2.13,3.68-8.09-2.79-11.46,0,0,.9-8.07-8.91-11.55C1330.63,257.33,1329.12,251.59,1317.45,254Z"/><path class="cls-9" d="M1351.88,256.87s4,1.45,3.1-4.32c0,0,5.58-3.57,2.48-7.93,0,0,6.26,2.3,6.64-2.47,0,0-1.5,4.35,1.94,6,0,0-3.89.34-.89,4,0,0-4.61-2.61-3.91,1.2l-1.65-3.41a8.16,8.16,0,0,1-2.66,3.29S1357.4,260.07,1351.88,256.87Z"/><path class="cls-8" d="M1326.18,233.32c-3.25,1.26,2.39,1.31,3.8.89a11.29,11.29,0,0,0,3-1.66S1330.48,231.64,1326.18,233.32Z"/><path class="cls-8" d="M1204,328.74s-4.58-1.3-2.83-4.84,6.41.29,6.41.29-.26-1.82,2.67-2.42a3.94,3.94,0,0,1,4.2,1.38s-1.54-5.84,3.94-7.45,7.65,2.44,7.65,2.44-1.09-3.29,3.56-3.63c0,0-.69-4,4.29-3.37s3.83,4.2,3.83,4.2a4,4,0,0,1,3.12.32c1.72.88.87,3.4.87,3.4s1.08-5.15,8-4.9,5,3.58,5,3.58,3.88-3.69,6.24,1.89c0,0,0-3.37,5.26-3.69s5.32,3.77,5.32,3.77,1-1.08,2.76.49a3.29,3.29,0,0,1,1.3,3.14s1.32-1.81,3.42.6a3.29,3.29,0,0,1,4.93,0s4.81.22,3.25,2.76c0,0,3.82-1.6,4.3,1.05s-4.73,2-4.73,2,1.35,3-2.34,2.79S1280,330,1280,330s1.14,6-5.87,6.63-7.4-3.65-7.4-3.65-.89,8.47-10.86,8.94-11.69-7-11.69-7-1.8,3.23-6.56,1.78-4.48-4.46-4.48-4.46-1.26,2.39-6.45,2.22-4.86-3.9-4.86-3.9-2.38,3.9-6.33,2.18-3.94-3.9-3.94-3.9a3.85,3.85,0,0,1-3.9,1.77C1204.78,330.35,1204,328.74,1204,328.74Z"/><path class="cls-9" d="M1280,326.87c-3.91-.88-2.73,1.75-2.73,1.75-6.71,4.7-11.88,2-11.88,2-3.16,4.61-6.23.92-6.23.92s.42,5.49-6.43,6.1-6.87-5.45-6.87-5.45c-8.23,2.14-11.53-2.81-11.53-2.81-7.05,2.3-7.46-1.56-7.46-1.56-4.42.87-5.92-1.95-5.92-1.95a4.68,4.68,0,0,1-5.3.54,2.08,2.08,0,0,1-1.33,2.18c-1.54.59-2.31-1.6-2.31-1.6-4.09,2.85-6.34.3-6.34.3a4.45,4.45,0,0,1-4.83-2.17c-.3,2.62,3.21,3.62,3.21,3.62s.78,1.61,3.67,1.86a3.85,3.85,0,0,0,3.9-1.77s0,2.18,3.94,3.9,6.33-2.18,6.33-2.18-.34,3.74,4.86,3.9,6.45-2.22,6.45-2.22-.28,3,4.48,4.46,6.56-1.78,6.56-1.78,1.72,7.43,11.69,7,10.86-8.94,10.86-8.94.38,4.24,7.4,3.65S1280,330,1280,330s.71,2.29,4.4,2.52,2.34-2.79,2.34-2.79,5.2.69,4.73-2-4.3-1.05-4.3-1.05c1.56-2.54-3.25-2.76-3.25-2.76a3.29,3.29,0,0,0-4.93,0C1276.83,325,1280,326.87,1280,326.87Z"/><path class="cls-9" d="M1252.75,332.23s.61-4.36-5-4.46c0,0-1.54-3-4.26-2.68,0,0,4.41-.77,4.88-3.5,0,0,3.24-.23,3.91-2.23,0,0-.58,3.59,2.29,3.27,0,0,2.08,3.13,4.21.06,0,0,3.22,3.27,5.81,2.14,0,0,3.43,1.61,5.73,0,0,0-2.64,2.82-5.33,2,0,0-4.4.89-6.31-.95,0,0-1.24,1-.41,3.34C1258.3,329.22,1254.09,328.86,1252.75,332.23Z"/><path class="cls-8" d="M2078,295.47c-3.16,5.14-5.25,8.48-9.17,6.87s-4.62,6.2-9.5,5.15-3.41,6-9.64,6.16-9.2-9.57-11.56-7.29c0,0,.93,9.67-9.62,12.41s-20.66,2-26.8-4.3c0,0-.64,5.3-5.4,4.4s-.76,7.29-10.63,9.06a30.43,30.43,0,0,1-17.61-2.16s1.51,7.35-8,10-12.62-3.87-18.44-2.87-7.54,5.57-13.82,4-9-3.82-9-3.82,1.7,4.51-1.46,5.18a5.28,5.28,0,0,1-5-1.4s3.11,3.23-1.12,6.27-21.31,4.51-20.15-1.95a5.73,5.73,0,0,1-6,2.54c-4.27-.6-2-3.8-2-3.8s-3.51,4.38-6.37,2.22c0,0-.22,4.62-4.24,4.47,0,0,.88,6-11.27,6.36s-13.8-8-13.8-8-1.77,3.09-5.06.07c0,0-2.54,4.19-7.24,4.36s-5.35-5.18-5.35-5.18a4.7,4.7,0,0,1-5.22,3.25s.88,2.79-4.3,3.48-9.61-1.77-6.69-6.28c0,0-3.72,3.91-7.11,2.7a10.85,10.85,0,0,1-5.11-3.93s0,5.42-7.31,4.36-3.74-4.92-3.74-4.92-4.37,1.37-5.65-.72-4.24.84-6-1.22,1.93-4.36,6.93-2.74c0,0-1.77-5.42,5.52-4.17,0,0-.51-5.18,6.15-4.75s5,2.94,5,2.94,3.63-4.56,7.45-.69c0,0-.36-5,6.49-6s9.47,1.57,9.47,1.57.36-4.48,6.76-3.29c0,0-1.48-4.88,3.42-5.6,0,0-1.42-11.26,16.64-8.89,0,0,.92-5,6.42-3.68,0,0-.36-6.55,8.45-6.69,0,0-.51-9.7,15.92-8.12,0,0,6.77-5,12.85,1,0,0,.53-6.54,7.14-2.79,0,0-2.88-5.84,3.52-7.53A11.1,11.1,0,0,1,1917,283.9s-5.25-8.32,4.29-13.84,17.23-.58,17.23-.58,4.06-4.49,7.94.28c0,0,3.43-4,7.49-1.22,0,0-.83-7.88,7.4-7,0,0-3-8.89,7.55-9.44s13.84,7.67,13.84,7.67,9.33-8.65,16.73,1.62c0,0,3.22-4.48,8.56-1.19,0,0,9.18-14.82,20.46-2.61s-4.27,20.86-4.27,20.86,8.08.72,6.8,5.85-10.48,5.17-10.48,5.17,5.41,2.22,4.22,5.6c0,0,4.75-2.82,6.95,1,0,0,7-3.89,11.78,2.76a5.13,5.13,0,0,1,6.46-3.29c4.92,1.4,8-3.69,12-.19s5.82-2.86,9-1.4S2079.76,292.57,2078,295.47Z"/><path class="cls-9" d="M2024.45,298a4.18,4.18,0,0,1,.45-.18Z"/><path class="cls-9" d="M1798.52,338.32a2.64,2.64,0,0,1,.05-.56A2.8,2.8,0,0,1,1798.52,338.32Z"/><path class="cls-9" d="M2040.42,303.26a3.55,3.55,0,0,1,.58-.35S2040.79,303.06,2040.42,303.26Z"/><path class="cls-9" d="M2078.1,295.26l-.12.21c-3.16,5.14-5.25,8.48-9.17,6.87s-4.62,6.2-9.5,5.15-3.41,6-9.64,6.16c-3.73.07-6.29-3.37-8.25-5.65,6.7,1.3,6.22-2.6,6.22-2.6a7.29,7.29,0,0,0,7.66-4.49c4.35,3.44,10.1-.65,10.1-.65,2.73,1,4.47-1.69,4.47-1.69A9.87,9.87,0,0,0,2078.1,295.26Z"/><path class="cls-9" d="M1791,334a3.78,3.78,0,0,1,0-.53A3.78,3.78,0,0,1,1791,334Z"/><path class="cls-9" d="M1785.46,338.19s-1.77-5.42,5.52-4.17c-4.69,0-3.57,2.54-2.15,3.65a1.81,1.81,0,0,0,2.58-.42s-2.8,3.84,2.26,4c3.82.14,4.66-1.93,4.85-3,0,1,.5,2.88,4.31,2.46,5.09-.56,4.65-3.62,4.65-3.62,1.61,3.76,5.7,2,5.7,2-.11,5,3.89,4.36,3.89,4.36a2.12,2.12,0,0,0,4.06-.1c.62-2.23-2.35-2.24-2.35-2.24,2.85-2.86-1.81-7.24-1.81-7.24,2.09,2.06,5.75.55,5.75.55-.61-3.34,2.74-4.61,2.74-4.61s-2.86,3.6-.18,4a5,5,0,0,0,4.23-1.17,4.48,4.48,0,0,0,5.78,3.39s-2.39,4.6,2.1,4.51,2.3-4.28,2.3-4.28,2.18,2.33,3.66.2-1.65-4.35-1.65-4.35c3.39,1.68,4.65.39,4.65.39,3.15,5.72,8,3.28,8,3.28s-.56,4,5,3.42,2.8-4.38,2.8-4.38c6.5.94,6.29-2.87,6.29-2.87,5.94.88,4.95-3.65,4.95-3.65,2.1-2.14-.44-3-.44-3,2.51,0,3.12-1.05,3.12-1.05-.82-3.3,2.58-4,2.58-4-2.58,1.7.56,3.75.56,3.75s-2.74,3.68.91,6.08,5.22.42,5.22.42-1.38,3.2,2.88,3a5.13,5.13,0,0,0,5-3.92,3.21,3.21,0,0,0,3.42,3.54,5.09,5.09,0,0,0,4.94-2.8s1.81,2.94,4.63,1.37,2.15-4.89,2.15-4.89,2.35,3.48,4.42.14-2.29-4.41-2.29-4.41c6.85-4.9-1.43-7.87-1.43-7.87-1.91.3-1.83,2.77-1.83,2.77-1.26-3.64-6.59-3.56-6.59-3.56,9-1.14,7.2-6.49,7.2-6.49,2.5,7.18,8.45,3.65,8.45,3.65s-.69,4.26,1.33,3.94,1-3.27,1-3.27,4.82,2.54,8.19,0,.23-6.06.23-6.06,5.45,2.41,6.91.29a2.62,2.62,0,0,0-.56-3.65c2.63,1.32,7.06-.08,7.06-.08-5.81,2.68-2.1,6.92-2.1,6.92-5.85,3.2-1,7.14-1,7.14s-3.86-.69-2.62,3,4.5,1.72,4.5,1.72c1.45,3.08,4.68,1.47,4.68,1.47,1.6,6.69,6.32,3,6.32,3s-.68,3.35,2.91,2.47,2.3-3.52,2.3-3.52c5.58-1.43,3.94-4.68,3.94-4.68,3.61-1.29-.35-4-.35-4,8.48-1.67,5.92-7.78,5.92-7.78-3.65-.14-3-2.78-3-2.78-5-.51-5.68-3.32-5.68-3.32,4.21,3.08,7.63.45,7.63.45-1.65,3.23,3,4.74,3,4.74s-.39,3.52,2.16,5.22,5.93-.1,5.93-.1-.61,4,2.45,4.32,3.44-3.08,3.44-3.08c4.56,1.71,5-4.65,5-4.65s2.25,5.3,6.89,1.73-1.51-6.91-1.51-6.91c4.8-4.23-4.06-6.07-4.06-6.07,8.38-4.33-2.34-6.32-2.34-6.32,7.79-2.84,9.66,2.71,9.66,2.71-2.66,4.33,4.36,4.84,4.36,4.84,1.35,5.58,5.39,2.94,5.39,2.94s-4.83,8.48,2.31,7.26,2.61-6,2.61-6a4.43,4.43,0,0,0,4.25-5c3.72,2.3,9.42.43,11-.19-3.27,1.51,1,5.47,1,5.47-5.23,2.24-1.16,6.29-1.16,6.29s-3.55,1.91.31,3.16,3.55-1.45,3.55-1.45c6.76-.17,4.9-4.11,4.9-4.11,4.06-.24,1.9-3.13,1.9-3.13a7.87,7.87,0,0,0,5.44-1,2.68,2.68,0,0,0-.94,2.91,1.08,1.08,0,0,0-1.37.18s.93,9.67-9.62,12.41-20.66,2-26.8-4.3c0,0-.64,5.3-5.4,4.4s-.76,7.29-10.63,9.06a30.43,30.43,0,0,1-17.61-2.16s1.51,7.35-8,10-12.62-3.87-18.44-2.87-7.54,5.57-13.82,4-9-3.82-9-3.82,1.7,4.51-1.46,5.18a5.67,5.67,0,0,1-4.94-1.38s2.88,3.35-1.14,6.24c-4.22,3-21.31,4.51-20.15-1.95a5.73,5.73,0,0,1-6,2.54c-4.27-.6-2-3.8-2-3.8s-3.51,4.38-6.37,2.22c0,0-.22,4.62-4.24,4.47,0,0,.88,6-11.27,6.36s-13.8-8-13.8-8-1.77,3.09-5.06.07c0,0-2.54,4.19-7.24,4.36s-5.35-5.18-5.35-5.18a4.7,4.7,0,0,1-5.22,3.25s.88,2.79-4.3,3.48-9.61-1.77-6.69-6.28c0,0-3.72,3.91-7.11,2.7a10.85,10.85,0,0,1-5.11-3.93s0,5.42-7.31,4.36-3.74-4.92-3.74-4.92-4.37,1.37-5.65-.72-4.24.84-6-1.22S1780.46,336.57,1785.46,338.19Z"/><path class="cls-9" d="M2002.1,283.7s5.42,1,5-3c0,0,.23-2.47,3.46-2.8,0,0-2.9-2.29.48-3.67s4.37,1.19,4.37,1.19a1.83,1.83,0,0,1,1.76-2.66s-4.15-1.4-3.93-3.87c0,0-3.79,4.16-8.51,1.88,0,0,2.68,3.11-1.27,4.86,0,0,2.31.9,2.11,2.34s-2.82.36-2.82.36S2006.56,282.49,2002.1,283.7Z"/><path class="cls-9" d="M1962.9,289.12s3.86-3,6.47-1.25c0,0-2-3.29.57-4.93,0,0-6.74,2.44-8.4-.66s2-3.8,2-3.8-4.83-.6-4.77-4.28c0,0-.34,4.25-4.24,4.34,0,0,4.48.17,3,3.75C1957.48,282.3,1965.09,284.27,1962.9,289.12Z"/><path class="cls-9" d="M1895.94,291.8a6.24,6.24,0,0,1,.45-1.72A6.74,6.74,0,0,1,1895.94,291.8Z"/><path class="cls-9" d="M1852.61,312.76c-12-3.29-16.94,5.4-16.94,5.4s-1.42-11.26,16.64-8.89c0,0,.92-5,6.42-3.68,1.11,3.37,3.81,1.9,3.81,1.9-2.05-3.45,2.6-4.85,2.6-4.85-.32-1.55,2-3.74,2-3.74s-.51-9.7,15.92-8.12c0,0,6.77-5,12.85,1-7.56-2.64-14.67,2.38-14.67,2.38a6.29,6.29,0,0,0-5.66,2.29c-5,.05-5.94,3.19-5.94,3.19-2.75,0-2.74,3.75-2.74,3.75-3.9,1.14-1.66,5-1.66,5l-.69,2.55a3.69,3.69,0,0,0,4.34,1.87s-2.23,3.81,1.64,4.05,4.48-2.73,4.48-2.73a4.47,4.47,0,0,0,5.43-2.5c-.75,2.92,3.16,3.45,3.16,3.45,3.67-3.66-2.41-6.37-2.41-6.37,5.41,1.84,7.85-1.11,7.85-1.11-2.12,4.15,1.21,7.79,1.21,7.79a4.81,4.81,0,0,0-5.74,3.08,5.34,5.34,0,0,0-6,1.95c-2.71-4.66-9.17.48-9.17.48-4.71.37-4.06,4-4.06,4-7.52-.51-5.51,4.21-5.51,4.21-4.8-4.92-12.13-1.41-12.13-1.41,2.78-2.23,4.17-3.35,6.93-5.59,5.67-.07,4.26-3.66,4.26-3.66,6.32-2,1.28-6.05,1.28-6.05C1856.21,309.3,1852.61,312.76,1852.61,312.76Z"/><path class="cls-8" d="M1714.76,288s-.6-2.62-6-1.37c0,0-.16-2.69-4.76-2.56,0,0,.26-2.75-6-4.81s-10.51.74-10.51.74,1.48-3.55-4.72-6.88-16.48-3.44-16.48-3.44,1.47-2.2-3.28-3.19-4.6,2.32-4.6,2.32a3.82,3.82,0,0,0-2.78-3.51s4.27-4.82-13.36-7.83-16.31,3.86-16.31,3.86-.49-1.43-3-1.51c0,0,1-4.44-7.33-6.5s-13.23,1.85-11.25,4.71c0,0-1-4.94-10.85-5.32s-5,6.49-5,6.49-3.29-3.26-6.19-2.5-1,3.62-1,3.62-8.82-8-19.15-5.33,2.14,11.06,2.82,12.22c1.21,2.05,6.29,15.11,15.81,16,0,0-.3,2.66,5.47,4.07s5.49-1.49,5.49-1.49-5.23,6,5.54,8.83,15.85-1.3,15.85-1.3,2.27,3.74,9,3,7.14-3.27,7.14-3.27,12,7.56,15.35,1.26c0,0,13.11-.09,14-.45,1.75-.68,18.69,6.31,25.37,1.5,8-5.74,3-9.07,3-9.07s8,4,11.38,1.69c0,0,0,2.08,3.85,1.85s3.71-2.07,3.71-2.07S1712.83,290.75,1714.76,288Z"/><path class="cls-9" d="M1589.08,265.46h0Z"/><path class="cls-9" d="M1714.76,288c-1.93,2.8-8.71-.26-8.71-.26s.1,1.84-3.71,2.07-3.85-1.85-3.85-1.85c-3.23,2.27-11.35-1.67-11.35-1.67s4.58,3.57-3,9.06c-6.68,4.82-17.55,2-25.37-1.5-1.74,6.17-14,.45-14,.45-3.31,6.3-15.35-1.26-15.35-1.26s-.38,2.52-7.14,3.27-9-3-9-3-5.09,4.12-15.85,1.3c-7.39-1.94-7.23-5.39-6.42-7.35-.74.42-2.11.62-4.61,0-5.78-1.41-5.47-4.07-5.47-4.07-9.52-.92-20.23-6.86-15.81-16-9.93-2-13.15-9.56-2.82-12.22h0c-3,2.46-4.41,5.91,5.88,8.22,0,0-2.79,2.37.89,4.41,0,0,4.25,0,4-3,0,0,7.69,1.92,9.76-.92,0,0,1.93,1.82,6.26,1.88-2,0-7.72.38-4.75,3.37,0,0-6-.26-3.23,3.12a6.25,6.25,0,0,0,4.28.88s-2.94,3,3.56,4.61c0,0-2.88,3.17,4.81,4.22s1-3.7,1-3.7,4.57,2.76,9.15,1.47c0,0-2.84,6.94,6.69,8.41,0,0,1.86,2.23,6.13,1.14,0,0-1.4,2.34,5.65,3.18,0,0,3.35-1.73,1.88-3.38,0,0,3.66,2.53,7.21.5s-5.12-3.69-7.48-2.72a16,16,0,0,0-8-2.37s10-.67,8.24-3.31c0,0,3.48-2.42-2.11-3.38,0,0,1.05-2.23-3.32-3.81,0,0,10.13-1.72,2.92-7.84,0,0,7.91,1,11.09-2.64,0,0-3.86,4.26-.12,6.31,4.51,1,6.76,1.46,11.28,2.4,0,0-11.24-.37-6.69,5.2a5.4,5.4,0,0,0-5.45.71s-.81,4.72,7.44,3.34c0,0,4,5,7.29.76,0,0,9,6,15.92-.53,0,0-4.85,5.75,4.32,8.07S1674,287,1674,287s8.37,1.84,7.7-2.88c0,0,5,1.49,7.58-1.08,0,0,.56,2.34,4.87,3.6s4.81-1.81,4.81-1.81,4.61,3,9.75,1.73C1714.07,285.29,1714.76,288,1714.76,288Z"/><path class="cls-9" d="M1670.09,282.89s2.9-2.65.84-4.19c0,0,2.59-1.15,1.13-3.07,0,0,5,1.06,5.64-.7,0,0,.22,1.57,2.69,2.4,0,0-3.15,0-2.78,2.14,0,0-3-1-3.77.44A5.08,5.08,0,0,1,1670.09,282.89Z"/><path class="cls-9" d="M1614,280.26s-6.42-3-4.25-6.43c0,0-3.71-3.14-1.37-4.09,0,0-3-3.68,1.81-4.16a10.13,10.13,0,0,1-7.28-1.4s.43,2.89-5.09,1.57a1.92,1.92,0,0,1-.78,3s7,1.26,7.24,4c0,0,4.11,1.14,3.66,2.92C1608,275.72,1608.29,278.74,1614,280.26Z"/><path class="cls-8" d="M1850.14,229.14c-.6,2.22,3.07.73,3.07.73s.85,2.15,2.8.1c0,0,4.85,5,10.17-1.32,0,0,2.75,4,5.18,2.51s4.72,7.57,14.6,1.28c0,0,9.28,7.63,15-3.53,0,0,2,4.14,6.82.19,0,0,.91,4.69,9.91,1.27s6.93-8.88,6.93-8.88,5.35,6.28,12.87,2.86a9.84,9.84,0,0,0,5.9-10.85s6.52,2.31,10.87-3.08a5.27,5.27,0,0,0,6.06-5c.76-5.79-5.4-7.16-5.4-7.16s-.8-3.7-4.34-4.1a4.32,4.32,0,0,0-4.67,2.23s-1.34-3.66-7.12-5.35a6.15,6.15,0,0,0-7.73,3.72s.09-3.27-2.12-3.57a3.79,3.79,0,0,0-3.35,1,6.07,6.07,0,0,0-4.79-3.59c-3.49-.33-5.21,4.14-5.21,4.14s.34-2.12-1.06-2.52-2.48,2-2.48,2-1.78-2.12-3.54-1.45-1.37,2.93-1.37,2.93-2-5.57-9.11-1.92-3.88,9-3.88,9a3,3,0,0,0-4.2-.33c-2.6,1.73-.27,3.87-.27,3.87s-4.08-3.31-9.1,1.33-.33,8.08-.33,8.08-3.76-2.17-6-.44a3.37,3.37,0,0,0-.92,4.18s-2.1-4.31-7.14-.56-1.06,6.19-1.06,6.19-4.6-3.12-7.94-.83-2.11,4.47-2.11,4.47-2.48-1-2.19,1C1852.92,227.86,1850.63,227.34,1850.14,229.14Z"/><path class="cls-9" d="M1900.81,204.35c-.1-.14-.21-.27-.33-.41A5,5,0,0,0,1900.81,204.35Z"/><path class="cls-9" d="M1852.92,227.86s0-.18,0-.5A1.83,1.83,0,0,0,1852.92,227.86Z"/><path class="cls-9" d="M1914.4,202.72v0Z"/><path class="cls-9" d="M1947.68,199.22s.32.23.79.5A5.46,5.46,0,0,0,1947.68,199.22Z"/><path class="cls-9" d="M1954.91,198.3s2.43,1,0,3-3-1-3-1c-.75.76-2.42,0-3.42-.59a2.77,2.77,0,0,1,1.27,3.26c-.94,2.3-3.69,1.19-3.69,1.19s2.1,2.78-.76,3.55a3.49,3.49,0,0,1-4.07-2s.27,2.63-1.29,2.39-1-3.62-1-3.62a2.85,2.85,0,0,1,2.21-3.68,5.82,5.82,0,0,1-1.51-4.65,5.56,5.56,0,0,1-4.92,3c-3.1,2.3-5.44.54-5.44.54-1.62,1.39-4.88,1.37-4.88,1.37,5.47.5,5,6.39,5,6.39,2.56-3.56,5.33-.81,5.33-.81,4.09-1.44,3.23,2.07,3.23,2.07-.92,3.08,2.2,4,2.2,4a2.51,2.51,0,0,1-3.26.59c-3.42,2.84-5.49.4-5.49.4a2.54,2.54,0,0,1-3.08,2s2.08,2.73.17,4.2-4.27-.3-4.27-.3c-4,2.53-4.17-.93-4.17-.93-4.77,2.33-3.84-1.33-3.84-1.33s-2.8,2.45-4.64.37,2.17-3.5,2.17-3.5c-4.11-1.76.55-3.45.55-3.45.59-2.84,4.66-2.32,6-2.07-5.82-1.31-2.18-4.53-2.18-4.53a4,4,0,0,1-3.71-1.49,2.77,2.77,0,0,1-.9,3.76c-2.36,1.44-2.63-.38-2.63-.38s.46,3.38-2.23,3.3-2.11-3-2.11-3a5.78,5.78,0,0,1-5.72-2c2.18,2.93.41,6.38.41,6.38,5-1.48,5.38,2.11,5.38,2.11,4,3.39-.56,5.78-.56,5.78,1,3.48-2.34,3.07-2.34,3.07s3.18,2.57.92,2.95-2.43-3.52-2.43-3.52c-3.49,2.19-5.06-2-5.06-2,.08,4.14-2.42,3.25-2.42,3.25s1.35,3-1.49,2.91-.74-2.42-.74-2.42a3.41,3.41,0,0,1-4-2.94c.26,4.3-2.68,4.41-2.68,4.41s2.65,3.34-.94,4.06-3.37-2.55-3.37-2.55c-1.6,1.61-2.47.69-2.47.69-1-1,1.85-2.77,1.85-2.77a6.87,6.87,0,0,1-8-1.31s.86,5-2,5.3-3.09-1.92-3.09-1.92c-3.42,1.51-3.7-1-3.7-1a6.55,6.55,0,0,1-7.29,3.06,2.93,2.93,0,0,1-3.89-.09s-2.29-.52-2.78,1.29c-.6,2.22,3.07.73,3.07.73s.85,2.15,2.8.1c0,0,4.85,5,10.17-1.32,0,0,2.75,4,5.18,2.51s4.72,7.57,14.6,1.28c0,0,9.28,7.63,15-3.53,0,0,2,4.14,6.82.19,0,0,.91,4.69,9.91,1.27s6.93-8.88,6.93-8.88,5.35,6.28,12.87,2.86a9.84,9.84,0,0,0,5.9-10.85s6.52,2.31,10.87-3.08a5.27,5.27,0,0,0,6.06-5C1961.07,199.67,1954.91,198.3,1954.91,198.3Z"/><path class="cls-9" d="M1920.29,208.73l.46.1Z"/><path class="cls-9" d="M1890.35,218.84a4.13,4.13,0,0,0-4.71.61,3.19,3.19,0,0,0-2-2.78s4-.55,2.65-3.52c0,0,2.51-2.47-.11-4.34,0,0,1.76.24,2.63-2.06,0,0-1.34,2.43,1,3.22,0,0-2.06,1,.08,2.75s3.4-1,3.4-1-1.48,2.45-.35,4.25c0,0-2.94-1.4-4-.23S1890.35,218.84,1890.35,218.84Z"/><path class="cls-8" d="M1753.78,222.63c-4.18,1,8.16.31,8.16.31s3.59,3.41,6.79,3.32,8.08-2.24,8.08-2.24,4.92,3.5,17.29,1.53,12.46-6,12.46-6,5.71,4.34,12.43,2.06,7.78-6.82,7.78-6.82,7.06.33,6.29-2.07-7.31-2.18-7.31-2.18.77-3.64-3.56-4.34-6.85,4.18-6.85,4.18-.1-10.35-14.08-10.83-16.68,12.64-16.68,12.64-3.2-3.82-9.05-1.16-4.59,6.48-4.59,6.48-4.65-1.63-7.66.1S1759.42,221.31,1753.78,222.63Z"/><path class="cls-8" d="M1349.23,264.75c-2.55.3-3.07,1.52-1.37,1.48a39.71,39.71,0,0,0,6.16-1.33s1.59,4,7.76,1.75a9.8,9.8,0,0,0,8.24,2.18c5.2-.85,6.44-2.46,6.44-2.46a5.43,5.43,0,0,0,7.24-.38,6.2,6.2,0,0,0,5.33,3.28c3.86.12,4.91-2.74,4.91-2.74s2.81,2.87,5.64,2.39,1.69-3.34,1.69-3.34,2.13-1.81.22-3.72-4.06,1.14-4.06,1.14a3.18,3.18,0,0,0-4.41-.11s4.4-4.08.78-7.24-7.41,4.24-7.41,4.24-1.85-1.64-3.27-.89-1.63,3-1.63,3-.34-2.52-4.65-2.49-4.26,2.79-4.26,2.79-2.19-2.89-7.67-1-5.87,1.86-8.1,1.22-4.65,1.39-4.65,1.39-1.18-1.28-2.13-1S1349.23,264.75,1349.23,264.75Z"/><path class="cls-8" d="M1839.79,192.77s-2.1-3.66,5.12-8.48,6.21-7.76,12.78-7.3,8.51,2,4.41,4.28-10.6,6.72-10.6,6.72S1849.57,192.74,1839.79,192.77Z"/><path class="cls-8" d="M1945.89,183.66s6.48-8.33,14.42-8.82,3.93-6.93,14.74-9.5,6.7,6.34,6.7,6.34-9.82,7.75-17.86,9S1945.89,183.66,1945.89,183.66Z"/><path class="cls-8" d="M1809.38,338.39a19.63,19.63,0,0,1,6.28-5.36s7.52,0,1.85,4S1809.38,338.39,1809.38,338.39Z"/><path class="cls-8" d="M1821.76,231.63s2.4-.57,6.85-1.78a34.39,34.39,0,0,1,7.09-1.3s7-1,8,1.21-5.12,3.55-11.36,3.54-12.68,5.31-15.31,3.14S1821.76,231.63,1821.76,231.63Z"/><path class="cls-8" d="M1980.65,344.14c-4.08,1.84-1.52,8.21,5.14,3S1988,342,1988,342Z"/><path class="cls-8" d="M1971,360.11c-5.87,3.44-5.09,6-2.73,5.51s5.8-1.63,7-3,3.58-1.84,2.65-3.23S1974.67,358,1971,360.11Z"/><path class="cls-8" d="M1933.77,369.68c-4.39.82-6.39,5.43-1.78,4.73s11.07-2.52,13.39-5.14,4.14-3.1,1.37-4.16S1933.77,369.68,1933.77,369.68Z"/><path class="cls-8" d="M1974,391.66c-1.79,1.07-.52,2.24,5.28.15s7-3.61,7-3.61S1982.66,386.48,1974,391.66Z"/></g></g></svg>