<svg xmlns="http://www.w3.org/2000/svg" viewBox="0 0 12.12 24"><defs><style>.cls-1{fill:#fff;}</style></defs><title>fb</title><g id="Capa_2" data-name="Capa 2"><g id="Footer"><g id="_Grupo_" data-name="&lt;Grupo&gt;"><path id="_Trazado_" data-name="&lt;Trazado&gt;" class="cls-1" d="M.39,12.78H3V23.61A.39.39,0,0,0,3.4,24H7.87a.39.39,0,0,0,.39-.39V12.83h3a.39.39,0,0,0,.38-.34l.46-4a.39.39,0,0,0-.38-.43H8.25V5.57c0-.75.41-1.14,1.21-1.14h2.28A.39.39,0,0,0,12.12,4V.39A.39.39,0,0,0,11.74,0H8.45A6,6,0,0,0,4.52,1.48,4.12,4.12,0,0,0,3.15,5.15V8.07H.39A.39.39,0,0,0,0,8.46V12.4A.39.39,0,0,0,.39,12.78Z"/></g></g></g></svg>