<svg xmlns="http://www.w3.org/2000/svg" viewBox="0 0 164.91 279.78"><defs><style>.cls-1{fill:#393353;}.cls-2{fill:#91561d;}.cls-3{fill:#fb0;}.cls-4{fill:#4a7be7;}.cls-5{fill:#ffb74d;}.cls-6{fill:#f5f5f5;}.cls-7{fill:#e8555e;}.cls-8{fill:#fbc700;}.cls-9{fill:#f5b400;}.cls-10{fill:#424242;}.cls-11{fill:#f8cfb3;}.cls-12{fill:#f74e4b;}.cls-13{fill:#e63c39;}.cls-14{fill:#af302a;}.cls-15{fill:#fd0;}.cls-16{fill:#fcb182;}.cls-17{fill:#8d4f36;}.cls-18{fill:#75422d;}.cls-19{fill:#a85e40;}</style></defs><title>globo</title><g id="Capa_2" data-name="Capa 2"><g id="Catalogo_productos" data-name="Catalogo productos"><path class="cls-1" d="M99,247.73H65.9l1.43,22.5h0c0,2.44,1.62,4.89,4.87,6.75a20.24,20.24,0,0,0,20.55,0c3.24-1.86,4.85-4.31,4.85-6.75h0Z"/><path class="cls-2" d="M94.18,254.51c-6.48,3.73-16.95,3.73-23.42,0s-6.46-9.78,0-13.52,16.94-3.74,23.42,0S100.65,250.76,94.18,254.51Z"/><path class="cls-1" d="M92.85,253.65c-5.73,3.31-15,3.31-20.76,0s-5.72-8.68,0-12,15-3.31,20.76,0S98.59,250.33,92.85,253.65Z"/><path class="cls-3" d="M101,247.65c1.36,0,2.51,1.72,2.52,3.84s-1.09,3.84-2.45,3.85-2.52-1.71-2.52-3.82S99.58,247.68,101,247.65Z"/><polygon points="89.44 240.15 88.52 240.11 91.39 188.38 92.31 188.43 89.44 240.15"/><polygon points="75.4 240.15 72.52 188.43 73.45 188.38 76.33 240.11 75.4 240.15"/><rect x="74.08" y="219.5" width="55.86" height="0.93" transform="translate(-127.7 297.56) rotate(-83.79)"/><polygon points="65.44 247.78 59.88 192.86 60.79 192.76 66.36 247.69 65.44 247.78"/><polygon points="90.87 256.16 89.94 256.11 92.83 203.48 93.75 203.53 90.87 256.16"/><rect x="72.52" y="203" width="0.93" height="53.17" transform="translate(-12.3 4.28) rotate(-3.1)"/><path class="cls-3" d="M87.44,261c0,2-2.23,3.62-5,3.62s-5-1.63-5-3.62,2.23-3.64,5-3.64S87.44,259,87.44,261Z"/><path class="cls-3" d="M98.81,256c.81,1.82-.56,4.22-3.06,5.35s-5.2.53-6-1.28.56-4.22,3-5.34S98,254.21,98.81,256Z"/><path class="cls-3" d="M64,247.65c-1.38,0-2.52,1.72-2.54,3.84s1.1,3.84,2.46,3.85,2.51-1.71,2.52-3.82S65.38,247.68,64,247.65Z"/><path class="cls-3" d="M66.17,256c-.82,1.82.55,4.22,3,5.35s5.21.53,6-1.28-.55-4.22-3-5.34S67,254.21,66.17,256Z"/><path class="cls-4" d="M105.58,169H59.37v23.64h0c0,3.41,2.26,6.81,6.77,9.42,9,5.21,23.64,5.21,32.67,0,4.5-2.61,6.77-6,6.77-9.42h0Z"/><path class="cls-5" d="M98.81,178.42c-9,5.21-23.65,5.21-32.67,0s-9-13.64,0-18.87,23.64-5.21,32.67,0S107.83,173.21,98.81,178.42Z"/><path class="cls-6" d="M164.9,82.44C164.9,128,128,183.34,82.48,183.34S0,128,0,82.44a82.43,82.43,0,1,1,164.87,0Z"/><path class="cls-7" d="M146.33,94.19c0,45.52-34.58,89.16-63.85,89.16,0,0,21-28.25,21-73.78s-21-86.07-21-86.07C118.52,23.5,146.33,61.11,146.33,94.19Z"/><path class="cls-8" d="M18.59,94.19c0,45.52,34.61,89.16,63.89,89.16,0,0-24.43-28.51-24.43-74S82.48,23.5,82.48,23.5C46.43,23.5,18.59,61.11,18.59,94.19Z"/><path class="cls-8" d="M136.71,20.36C133,17.36,117,7.63,82.48,23.5c37.47-.66,74,12.67,82.43,58.94A82.24,82.24,0,0,0,136.71,20.36Z"/><path class="cls-7" d="M28.24,20.36c3.76-3,19.69-12.73,54.24,3.14C45,22.84,8.42,36.17,0,82.44A82.23,82.23,0,0,1,28.24,20.36Z"/><path class="cls-8" d="M82.48,23.5S62.67,5.86,41.26,11A82.09,82.09,0,0,1,70.7.84C78.35,4.69,82.48,23.5,82.48,23.5Z"/><path class="cls-7" d="M82.48,23.5S102.27,5.86,123.69,11A82.17,82.17,0,0,0,94.26.84C86.6,4.69,82.48,23.5,82.48,23.5Z"/><path class="cls-1" d="M103.17,35.45c-11.43,6.6-30,6.6-41.4,0s-11.43-17.31,0-23.9,30-6.61,41.4,0S114.61,28.85,103.17,35.45Z"/><polygon class="cls-7" points="20.65 120.06 15.71 134.66 3.48 101.78 20.65 120.06"/><polygon class="cls-7" points="144.03 120.06 148.96 134.66 161.21 101.78 144.03 120.06"/><polygon class="cls-9" points="111.75 133.04 122.46 153.25 134.53 125.45 111.75 133.04"/><polygon class="cls-9" points="68.26 135.37 80.59 158.47 92.92 135.37 68.26 135.37"/><polygon class="cls-7" points="52.65 133.04 41.95 153.25 29.87 125.45 52.65 133.04"/><path class="cls-10" d="M0,84.28C.55,96,8.6,107.67,24.13,116.65c32.2,18.58,84.44,18.58,116.64,0,16.1-9.31,24.15-21.48,24.15-33.68l-.23,5.55c0,12.19-7.82,24.37-23.92,33.67-32.2,18.59-84.44,18.59-116.64,0C8.6,113.23.9,101.58.35,89.84Z"/><path class="cls-11" d="M85.69,236.68a3,3,0,0,0,.53,1.49,17.88,17.88,0,0,0,1.18,1.74l0,0A17.57,17.57,0,0,0,90,242.63a11.32,11.32,0,0,1,1.45,1.65,20,20,0,0,0,1.8,2c.19.18.39.36.6.53A7.29,7.29,0,0,1,95.11,248a2,2,0,0,1,.4,1,3.47,3.47,0,0,0,.05.64c0,.08.09.17.17.16s.12-.13.12-.22,0-.2.09-.24a.21.21,0,0,1,.12,0,1,1,0,0,1,.74.68c0,.15,0,.43.12.5a1.42,1.42,0,0,0,.56-.08h0a1.35,1.35,0,0,0,1-1.18,1.71,1.71,0,0,0-.78-1.41,16.43,16.43,0,0,0-1.24-1.08,10.38,10.38,0,0,1-1.07-1.18l-.86-1c-.5-.61-.91-1.33-1.35-2a7.53,7.53,0,0,1-.73-1.31,5,5,0,0,0-.85-1.18,18.71,18.71,0,0,1-2-2.86,3.92,3.92,0,0,0-1.63-2,1.66,1.66,0,0,0-2.3,1.53Z"/><path class="cls-12" d="M95.25,245.72c.09-.08.37.08.46.12a2.18,2.18,0,0,1,.42.29,4.37,4.37,0,0,1,.45.46s.09.08.1.13a.33.33,0,0,1-.09.31,3.31,3.31,0,0,1-.5.46,1.8,1.8,0,0,1-1.13.48c-.15,0-.22-.18-.29-.3a3.74,3.74,0,0,1-.37-1,2,2,0,0,0,.34-.19,1.76,1.76,0,0,0,.28-.28,3.65,3.65,0,0,0,.24-.34A.91.91,0,0,1,95.25,245.72Z"/><path class="cls-13" d="M85.11,236.19a3.4,3.4,0,0,0,.6,1.67l.16.25A19.53,19.53,0,0,0,87,239.8l0,0a19.51,19.51,0,0,0,2.88,3,12.48,12.48,0,0,1,1.62,1.84,22.9,22.9,0,0,0,2,2.19c.25.24.54.65.92.58a1.92,1.92,0,0,0,.71-.42,2.58,2.58,0,0,0,.58-.6.8.8,0,0,0,.14-.66.5.5,0,0,0-.05-.12,3,3,0,0,0-.36-.44c-.19-.21-.4-.4-.57-.62l-.57-.74c-.29-.39-.6-.77-.87-1.17a8.65,8.65,0,0,1-.82-1.47,5.6,5.6,0,0,0-.95-1.32,21,21,0,0,1-2.23-3.2,8.64,8.64,0,0,0-1-1.58,2.34,2.34,0,0,0-.74-.59l-.11-.05a1.86,1.86,0,0,0-2.58,1.71Z"/><path class="cls-14" d="M87.8,234.53a2.54,2.54,0,0,0-.79.74,6,6,0,0,0-1.14,2.85A19.53,19.53,0,0,0,87,239.8l0,0a19.51,19.51,0,0,0,2.88,3,12.48,12.48,0,0,1,1.62,1.84,22.9,22.9,0,0,0,2,2.19c.25.24.54.65.92.58a1.92,1.92,0,0,0,.71-.42,2.58,2.58,0,0,0,.58-.6.8.8,0,0,0,.14-.66l0,0c-.28.24-.39.64-.67.88a1.24,1.24,0,0,1-1.33.07,3.54,3.54,0,0,1-1-.94l-1.17-1.36a2.72,2.72,0,0,1-.44-.62,1.4,1.4,0,0,1,.19-1.45c.25-.3.65-.57.6-1-.61.21-.92,1-1.56,1.09s-1.1-.45-1.42-1a10.51,10.51,0,0,1-.6-1.16,2,2,0,0,1-.22-1,3.71,3.71,0,0,1,.24-.8,6.17,6.17,0,0,0,0-2.89l0-.58Z"/><path class="cls-13" d="M74.33,244.43c.19,1.85,2.47,3.07,4.14,3.28a5.65,5.65,0,0,0,3.94-1,3.22,3.22,0,0,0,.72-.67l0-.07.09-.13c.33-.55.53-1.16.87-1.71s.56-.85.85-1.27c.78-1.13,1.58-2.26,2.4-3.36A5.1,5.1,0,0,0,88.2,236a2.71,2.71,0,0,0-.06-.36,2.4,2.4,0,0,0-.76-1.37c-.44-.95-1.87-.73-2.69-.6l-.86.15c-1.07.19-2.12.41-3.18.67a7.18,7.18,0,0,0-3,1.31,5.29,5.29,0,0,0-1.22,1.85,34.64,34.64,0,0,0-1.75,4.63A5.68,5.68,0,0,0,74.33,244.43Z"/><path class="cls-14" d="M83.18,246l.09-.13c.33-.55.53-1.16.87-1.71s.56-.85.85-1.27c.78-1.13,1.58-2.26,2.4-3.36A5.1,5.1,0,0,0,88.2,236a2.71,2.71,0,0,0-.06-.36c-.25.06-.48.25-.45.49L88,237a6.83,6.83,0,0,1-1.5,3.62,3.56,3.56,0,0,1-1,.92,1.84,1.84,0,0,1-1.36.19c0,.07.05.14.12.15a1.44,1.44,0,0,0,.22,0,.46.46,0,0,1,.33.52,1.44,1.44,0,0,1-.28.61A9.66,9.66,0,0,0,83.18,246Z"/><path class="cls-14" d="M74.66,242.25a34.64,34.64,0,0,1,1.75-4.63,5.29,5.29,0,0,1,1.22-1.85,7.18,7.18,0,0,1,3-1.31c1.06-.26,2.11-.48,3.18-.67a.62.62,0,0,1,0,.2l-.74.27c-1,1.23-2.92,1-4.21,1.93a4.93,4.93,0,0,0-1.17,1.27c-.25.36-.48.73-.69,1.11A2.63,2.63,0,0,0,78.17,240a7.76,7.76,0,0,0,2.53,1.13c.05,0,.11,0,.14.08s-.1.17-.21.18a4.14,4.14,0,0,1-1.76-.46,3,3,0,0,0-1.78-.31,2,2,0,0,0-1.37,1.7,4.59,4.59,0,0,0,.11,3,3.89,3.89,0,0,0,3.82,1.95,8.33,8.33,0,0,0,3.49-1.2,3.22,3.22,0,0,1-.72.67,5.65,5.65,0,0,1-3.94,1c-1.67-.21-4-1.43-4.14-3.28A5.68,5.68,0,0,1,74.66,242.25Z"/><g id="_Grupo_" data-name="&lt;Grupo&gt;"><path id="_Trazado_" data-name="&lt;Trazado&gt;" class="cls-15" d="M84.11,231.5s.71.84,1,1.2l.23.29a1.36,1.36,0,0,1,.35.79,1.78,1.78,0,0,1-1.11,1.63,2.25,2.25,0,0,1-1.66,0Z"/><path id="_Trazado_2" data-name="&lt;Trazado&gt;" class="cls-3" d="M82.91,235.37l.87-2.82.17,0,.1,1.38a4.47,4.47,0,0,0,.09.7,1.53,1.53,0,0,0,.16.43,1.31,1.31,0,0,0,.31.36l0,0A2.25,2.25,0,0,1,82.91,235.37Z"/><path class="cls-11" d="M82.88,236.53a3.81,3.81,0,0,0,.32.71,4.62,4.62,0,0,0,.5.7,1.08,1.08,0,0,0,.59.35,1.24,1.24,0,0,0,1.28-.66l.06-.12c.14-.29.28-.59.41-.89,0-.07.17-.28.15-.37s-.56-3-1.83-3c-.15-.2-.28-.25-.37-.06l-.06.12a1.9,1.9,0,0,0-1.27,1.53A3.55,3.55,0,0,0,82.88,236.53Z"/><path class="cls-16" d="M82.88,236.53a3.81,3.81,0,0,0,.32.71c-.06-.4-.23-.77-.29-1.17a8.76,8.76,0,0,1,.13-1.79c.11,0,.15.15.15.26a2.34,2.34,0,0,0,.11.67,2.54,2.54,0,0,0,.24.47,6.52,6.52,0,0,0,.82,1.21,2.3,2.3,0,0,0,1.21.74l.06-.12c.14-.29.28-.59.41-.89,0-.07.17-.28.15-.37s-.56-3-1.83-3c-.15-.2-.28-.25-.37-.06l-.06.12a1.9,1.9,0,0,0-1.27,1.53A3.55,3.55,0,0,0,82.88,236.53Z"/><path class="cls-11" d="M83.2,232.94c0,.16.07.31.11.47l.11.46.21.86a2.06,2.06,0,0,0,.55,1.13l.06.07c.62.74,1.21,1.5,2.29,1.47a1.82,1.82,0,0,0,1.79-1,10.61,10.61,0,0,0,.94-2.5,5.94,5.94,0,0,0,.21-1.22,1.42,1.42,0,0,0,0-.24c0-.45-.08-.9-.15-1.35l0-.21a1.81,1.81,0,0,0-1.35-1.32s-3.68.47-4.52,2c0,.19-.21.5-.24.71A1.54,1.54,0,0,0,83.2,232.94Z"/><path class="cls-16" d="M83.29,233.42c0,.07.09.12.21.06.66-.33,1.16-.94,1.85-1.22a3.15,3.15,0,0,1,.86-.21,5.24,5.24,0,0,1,2.72.42,2.73,2.73,0,0,0,.42.21c.16,0,.14-.11.12-.24,0-.45-.08-.9-.15-1.35l-.1,0c-.34-.07-.7-.12-1-.17a8.94,8.94,0,0,0-3.43.17,3.48,3.48,0,0,0-1.46.67,1.15,1.15,0,0,0-.33.43,1,1,0,0,0,0,.68,1.77,1.77,0,0,0,.26.46Z"/></g><path class="cls-11" d="M76.66,241.52a11.3,11.3,0,0,1,.21,1.26,7.32,7.32,0,0,0,.24,1.22c.31.94.78,1.82,1,2.78a19.88,19.88,0,0,0,1.54,4c.25.5.67,1.6,1,2.52s.52,1.46.53,1.51a.54.54,0,0,1,0,.08,2.49,2.49,0,0,1,0,.61l0,.19c0,.32-.05.64-.08,1a2.39,2.39,0,0,0-.05.79.91.91,0,0,0,.35.44c.24.19.5.35.51.7a.12.12,0,0,0,0,.07.11.11,0,0,0,.06,0,2.22,2.22,0,0,0,2-.23c.2-.17.24-.62.31-1.19s0-.64-.37-1.05a14.29,14.29,0,0,1-.83-1.42,16.7,16.7,0,0,1-.63-2c-.36-1.23-.78-2.69-1-3.31s-.41-1.55-.62-2.31a15.17,15.17,0,0,1-.37-2.07,16.16,16.16,0,0,0-.57-1.79,12.94,12.94,0,0,1-.06-4.34,6.6,6.6,0,0,0,.18-2.15,1.55,1.55,0,0,0-.74-1,1.85,1.85,0,0,0-.44-.17,1.77,1.77,0,0,0-1.57.35C75.82,237.37,76.24,239.87,76.66,241.52Z"/><path class="cls-13" d="M81.78,253.12l.79,0c-.05.12.11.41.15.53s.11.33.16.49,0,.22-.15.32a3,3,0,0,1-.85.37,3.27,3.27,0,0,1-.71,0c-.22,0-.21-.4-.25-.58s-.14-.85-.12-.85A3.61,3.61,0,0,0,81.78,253.12Z"/><path class="cls-17" d="M82.35,231.66c.06.22.12.44.19.65a7,7,0,0,0,.29.77c0,.09.2.46.36.75s.25.41.33.39.06-.06.07-.11a2.3,2.3,0,0,1,2-2.44,3.13,3.13,0,0,1,.62-.09,3.48,3.48,0,0,1,.7.07c.83.14,1.92.53,2.74.19a1.64,1.64,0,0,0,.84-.82,1.39,1.39,0,0,0,.07-.19.79.79,0,0,1-.57.2,2.61,2.61,0,0,0,1-1.48c-.31.19-1,.59-1.33.48.09-.17.28-.3.39-.49a.68.68,0,0,1-.56-.1,2.08,2.08,0,0,1-.42-.4c-.21-.24-.44-.47-.63-.73a2.6,2.6,0,0,0-1.14-.7,4.3,4.3,0,0,0-2.14-.24,3.69,3.69,0,0,0-.6.14,3.78,3.78,0,0,0-1.24.63,3.24,3.24,0,0,0-1,1.47A3.65,3.65,0,0,0,82.35,231.66Z"/><path class="cls-18" d="M82.37,231.68a7,7,0,0,0,.46,1.4c0,.09.2.46.36.75s.25.41.33.39.06-.06.07-.11a2.3,2.3,0,0,1,2-2.44,3.13,3.13,0,0,1,.62-.09,3.48,3.48,0,0,1,.7.07c.83.14,1.92.53,2.74.19a1.64,1.64,0,0,0,.84-.82,1.6,1.6,0,0,1-1,.44,6,6,0,0,1-1.27-.12,13,13,0,0,0-2.56-.12,2.81,2.81,0,0,0-.81.13,2,2,0,0,0-.75.48,2.21,2.21,0,0,0-.67,1.65c-.12,0-.22-.09-.28-.2C82.77,232.78,82.61,232.2,82.37,231.68Z"/><path class="cls-19" d="M82.81,229.88a2.29,2.29,0,0,1,.27-.8,2.85,2.85,0,0,1,1.48-1.23,4.16,4.16,0,0,1,1.93-.22,2.67,2.67,0,0,1,.78.19c.84.37,1.27,1.25,1.88,1.88,0,0-.51.11-.57.11a1.45,1.45,0,0,1-.51-.08c-.38-.14-.78-.29-1.17-.4a3.81,3.81,0,0,0-2.29.24,4.07,4.07,0,0,0-.59.26A3.11,3.11,0,0,0,82.95,231,2,2,0,0,1,82.81,229.88Z"/><path class="cls-13" d="M76.36,240.44c.05.34.1.69.14,1,.12.92.22,1.85.34,2.77a14.09,14.09,0,0,0,.3,1.76,13.5,13.5,0,0,0,.48,1.4c.58,1.51,1.17,3,1.76,4.46.24.6.58,1.15.84,1.73a.47.47,0,0,0,.16.23,1.25,1.25,0,0,0,.78,0,2.56,2.56,0,0,0,1.48-.69l0,0a.1.1,0,0,0,0-.06l0-.09a5.74,5.74,0,0,0-.21-.74,10.48,10.48,0,0,1-.5-1.2c-.11-.38-.23-.76-.36-1.13-.28-.77-.43-1.62-.65-2.41a16,16,0,0,1-.38-2.17c-.1-.83-.4-1.65-.5-2.49-.12-1-.15-2-.19-3s.47-2.05.23-3.15a1.62,1.62,0,0,0-.78-1.08,1.8,1.8,0,0,0-.46-.18,1.26,1.26,0,0,0-.33,0,1.72,1.72,0,0,0-1.16.42,3,3,0,0,0-.92,1.44A6.78,6.78,0,0,0,76.36,240.44Z"/><path class="cls-14" d="M76.36,240.44c.05.34.1.69.14,1,.12.92.22,1.85.34,2.77a14.09,14.09,0,0,0,.3,1.76,13.5,13.5,0,0,0,.48,1.4c.58,1.51,1.17,3,1.76,4.46.24.6.58,1.15.84,1.73a.47.47,0,0,0,.16.23,1.25,1.25,0,0,0,.78,0,2.56,2.56,0,0,0,1.48-.69l0,0a.1.1,0,0,0,0-.06l0-.09a2.68,2.68,0,0,1-1.38.21,1.89,1.89,0,0,1-1-.75,10.23,10.23,0,0,1-2.13-5.54.69.69,0,0,1,.59-.94l1.33-.29a2.72,2.72,0,0,1-2.1-.31,2.69,2.69,0,0,1-.71-1.88c-.13-1.27-.25-2.55-.38-3.82a5.35,5.35,0,0,1,.32-3.14,2.33,2.33,0,0,1,1.26-1.09l0-.05a1.72,1.72,0,0,0-1.16.42,3,3,0,0,0-.92,1.44A6.78,6.78,0,0,0,76.36,240.44Z"/><polygon points="91.13 234.53 90.39 247.96 91.26 249.07 92.09 231.95 91.13 234.53"/></g></g></svg>