<svg xmlns="http://www.w3.org/2000/svg" viewBox="0 0 24 24"><defs><style>.cls-1{fill:#fff;}</style></defs><title>ig</title><g id="Capa_2" data-name="Capa 2"><g id="Footer"><path class="cls-1" d="M17,0H7A7,7,0,0,0,0,7V17a7,7,0,0,0,7,7H17a7,7,0,0,0,7-7V7A7,7,0,0,0,17,0Zm5.1,17a5.1,5.1,0,0,1-5.1,5.1H7A5.1,5.1,0,0,1,1.88,17V7A5.1,5.1,0,0,1,7,1.88H17A5.1,5.1,0,0,1,22.13,7Z"/><path class="cls-1" d="M12,5.53A6.47,6.47,0,1,0,18.47,12,6.48,6.48,0,0,0,12,5.53Zm0,11.06A4.59,4.59,0,1,1,16.59,12,4.6,4.6,0,0,1,12,16.59Z"/><circle class="cls-1" cx="18.56" cy="5.44" r="0.94"/></g></g></svg>