<svg xmlns="http://www.w3.org/2000/svg" viewBox="0 0 69.33 72.95"><defs><style>.cls-1{fill:#fff;}</style></defs><title>impresora</title><g id="Capa_2" data-name="Capa 2"><g id="Catalogo_productos" data-name="Catalogo productos"><path class="cls-1" d="M58.55,15H56.68V10.78A10.79,10.79,0,0,0,45.9,0H23.27A10.79,10.79,0,0,0,12.49,10.78V15H10.78A10.79,10.79,0,0,0,0,25.73V43.12A10.79,10.79,0,0,0,10.78,53.9h1.69V67.56a5.39,5.39,0,0,0,5.38,5.38H51.28a5.39,5.39,0,0,0,5.38-5.38V53.9h1.89A10.79,10.79,0,0,0,69.33,43.12V25.73A10.79,10.79,0,0,0,58.55,15Zm-42-4.17a6.71,6.71,0,0,1,6.7-6.7H45.87a6.71,6.71,0,0,1,6.7,6.7V15h-36Zm36,56.82a1.31,1.31,0,0,1-1.3,1.3H17.85a1.31,1.31,0,0,1-1.3-1.3V45.05h36ZM65.25,43.13a6.71,6.71,0,0,1-6.7,6.7H56.68V45.05h2.69a2,2,0,0,0,0-4.08H9.48a2,2,0,0,0,0,4.08h3v4.78H10.78a6.71,6.71,0,0,1-6.7-6.7V25.75a6.71,6.71,0,0,1,6.7-6.7H58.55a6.71,6.71,0,0,1,6.7,6.7Z"/><path class="cls-1" d="M21.5,55.09h26a2,2,0,1,0,0-4.08h-26a2,2,0,1,0,0,4.08Z"/><path class="cls-1" d="M47.65,59.36h-26a2,2,0,1,0,0,4.08h26a2,2,0,0,0,0-4.08Z"/><path class="cls-1" d="M58.51,23H54.37a2,2,0,0,0,0,4.08h4.14a2,2,0,0,0,0-4.08Z"/></g></g></svg>