<svg xmlns="http://www.w3.org/2000/svg" viewBox="0 0 24 22.93"><defs><style>.cls-1{fill:#fff;}</style></defs><title>in</title><g id="Capa_2" data-name="Capa 2"><g id="Footer"><path id="LinkedIn" class="cls-1" d="M24,14.06v8.87H18.86V14.65c0-2.08-.74-3.5-2.61-3.5A2.81,2.81,0,0,0,13.61,13a3.52,3.52,0,0,0-.17,1.25v8.64H8.29s.07-14,0-15.47h5.15V9.65l0,0h0v0A5.11,5.11,0,0,1,18.08,7.1C21.46,7.1,24,9.31,24,14.06ZM2.91,0a2.68,2.68,0,1,0-.07,5.35h0A2.68,2.68,0,1,0,2.91,0ZM.31,22.93H5.45V7.46H.31Z"/></g></g></svg>