<svg xmlns="http://www.w3.org/2000/svg" viewBox="0 0 88.84 39.93"><defs><style>.cls-1{fill:#fff;}</style></defs><title>logo-white</title><g id="Capa_2" data-name="Capa 2"><g id="Header"><path class="cls-1" d="M19.89,24.92a4.84,4.84,0,0,1-8.53-3.13H6.27A9.93,9.93,0,0,0,19.89,31V24.93Z"/><path class="cls-1" d="M16.2,17a4.83,4.83,0,0,1,3.69,1.71h0V12.58A9.93,9.93,0,0,0,6.27,21.8h5.09A4.84,4.84,0,0,1,16.2,17Z"/><circle class="cls-1" cx="28.96" cy="21.8" r="4.18"/><circle class="cls-1" cx="57.96" cy="21.8" r="5.56"/><path class="cls-1" d="M73.84,11.87a5.73,5.73,0,0,1,0,11.47"/><rect class="cls-1" x="39.26" y="16.28" width="5" height="15.45"/><rect class="cls-1" x="67.98" y="11.87" width="5" height="19.86"/><rect class="cls-1" x="45.07" y="26.82" width="5" height="5"/><polyline class="cls-1" points="81.34 31.82 73.84 31.82 73.84 24.31"/><circle class="cls-1" cx="85.16" cy="21.8" r="1.26"/><rect class="cls-1" x="18.21" y="0.69" width="3.36" height="3.36" transform="translate(7.5 -13.37) rotate(45)"/><rect class="cls-1" x="33.87" y="36.57" width="3.36" height="3.36" transform="translate(71.1 76.5) rotate(180)"/><path class="cls-1" d="M4.29,9.69H3.94l-.06-.84a1.61,1.61,0,0,0-.58-.42,2,2,0,0,0-.82-.16A1.8,1.8,0,0,0,1,8.94a2.68,2.68,0,0,0-.55,1.75v.08A2.72,2.72,0,0,0,1,12.52a1.74,1.74,0,0,0,1.43.68A2.14,2.14,0,0,0,3.27,13a1.57,1.57,0,0,0,.6-.42l.06-.84h.35v1a2,2,0,0,1-.76.6,2.53,2.53,0,0,1-1.11.24,2.19,2.19,0,0,1-1.75-.79,3,3,0,0,1-.68-2v-.07a3,3,0,0,1,.68-2,2.22,2.22,0,0,1,1.77-.79,2.44,2.44,0,0,1,1.1.24,2,2,0,0,1,.74.6Z"/><path class="cls-1" d="M21.79,8.29V8h1.7v.34l-.62,0v4.77l.62,0v.34h-1.7v-.34l.62,0V8.34Z"/><path class="cls-1" d="M41.83,8a2.19,2.19,0,0,1,1.35.36,1.29,1.29,0,0,1,.48,1.1,1.19,1.19,0,0,1-.24.74,1.24,1.24,0,0,1-.66.44,1.34,1.34,0,0,1,.82.48,1.36,1.36,0,0,1,.32.89,1.4,1.4,0,0,1-.48,1.14,2,2,0,0,1-1.29.4H39.58v-.34l.62,0V8.34l-.62,0V8h2.24Zm-1.17,2.49h1.28a1.45,1.45,0,0,0,.93-.26.94.94,0,0,0,.33-.78.93.93,0,0,0-.35-.79,1.67,1.67,0,0,0-1-.26H40.66Zm0,.38v2.29h1.46a1.43,1.43,0,0,0,1-.3,1.06,1.06,0,0,0,.35-.85,1.11,1.11,0,0,0-.32-.82,1.25,1.25,0,0,0-.92-.32Z"/><path class="cls-1" d="M65.89,10.81H63.62v2.3h2.62l0-.83h.4V13.5H62.54v-.34l.62,0V8.34l-.62,0V8h4.12V9.17h-.4l0-.83h-2.6v2.08h2.27Z"/><path class="cls-1" d="M86.45,8a2.12,2.12,0,0,1,1.37.39,1.36,1.36,0,0,1,.48,1.12,1.29,1.29,0,0,1-.26.78,1.43,1.43,0,0,1-.72.5,1.21,1.21,0,0,1,.74.46,1.46,1.46,0,0,1,.23.84v.51a.81.81,0,0,0,.09.43.34.34,0,0,0,.28.15h.19v.34h-.29a.6.6,0,0,1-.56-.27,1.31,1.31,0,0,1-.16-.67v-.49a1,1,0,0,0-.32-.8,1.32,1.32,0,0,0-.9-.31H85.22v2.16l.62.05v.33h-1.7v-.33l.62-.05V8.35l-.62-.05V8Zm-1.23,2.61h1.18a1.65,1.65,0,0,0,1.1-.3,1,1,0,0,0,.35-.8,1,1,0,0,0-.35-.83,1.59,1.59,0,0,0-1-.29H85.22Z"/></g></g></svg>