<svg xmlns="http://www.w3.org/2000/svg" viewBox="0 0 289.8 130.24"><defs><style>.cls-1{fill:#4a7be7;}.cls-2{fill:#ed5d63;}.cls-3{fill:#393353;}.cls-4{fill:#fcc600;}</style></defs><title>logo-footer</title><g id="Capa_2" data-name="Capa 2"><g id="Footer"><path class="cls-1" d="M64.86,81.3A15.78,15.78,0,0,1,37,71.1H20.44a32.39,32.39,0,0,0,44.44,30.07V81.31Z"/><path class="cls-2" d="M52.83,55.32a15.74,15.74,0,0,1,12,5.58h0V41A32.4,32.4,0,0,0,20.44,71.1H37A15.78,15.78,0,0,1,52.83,55.32Z"/><circle class="cls-3" cx="94.46" cy="71.1" r="13.64"/><circle class="cls-1" cx="189.07" cy="71.1" r="18.14"/><path class="cls-4" d="M240.84,38.71a18.7,18.7,0,0,1,0,37.4"/><rect class="cls-4" x="128.05" y="53.1" width="16.3" height="50.39"/><rect class="cls-3" x="221.75" y="38.71" width="16.3" height="64.78"/><rect class="cls-2" x="147.01" y="87.48" width="16.3" height="16.3"/><polyline class="cls-2" points="265.32 103.78 240.84 103.78 240.84 79.31"/><circle class="cls-1" cx="277.79" cy="71.1" r="4.11"/><rect class="cls-4" x="59.41" y="2.27" width="10.94" height="10.94" transform="translate(24.47 -43.61) rotate(45)"/><rect class="cls-2" x="110.49" y="119.29" width="10.94" height="10.94" transform="translate(231.92 249.53) rotate(180)"/><path class="cls-3" d="M14,31.61H12.85l-.21-2.75a5.26,5.26,0,0,0-1.88-1.39,6.37,6.37,0,0,0-2.67-.53,5.89,5.89,0,0,0-4.82,2.21,8.76,8.76,0,0,0-1.79,5.7v.26a8.87,8.87,0,0,0,1.77,5.71A5.67,5.67,0,0,0,7.9,43a7,7,0,0,0,2.78-.53,5.12,5.12,0,0,0,2-1.38l.21-2.75H14v3.18a6.39,6.39,0,0,1-2.47,2,8.25,8.25,0,0,1-3.64.78,7.16,7.16,0,0,1-5.69-2.58A9.79,9.79,0,0,1,0,35.11v-.24a9.82,9.82,0,0,1,2.21-6.62A7.23,7.23,0,0,1,8,25.68a8,8,0,0,1,3.6.79,6.49,6.49,0,0,1,2.43,2Z"/><path class="cls-3" d="M71.09,27V25.94h5.54V27l-2,.16V42.78l2,.16V44H71.09V42.95l2-.16V27.21Z"/><path class="cls-3" d="M136.43,25.94a7.16,7.16,0,0,1,4.39,1.19,4.19,4.19,0,0,1,1.57,3.57,3.87,3.87,0,0,1-.79,2.42,4,4,0,0,1-2.14,1.43,4.36,4.36,0,0,1,2.68,1.55,4.43,4.43,0,0,1,1,2.9,4.57,4.57,0,0,1-1.57,3.73A6.38,6.38,0,0,1,137.4,44h-8.28V42.95l2-.16V27.21l-2-.16V25.94h7.31Zm-3.8,8.12h4.16a4.74,4.74,0,0,0,3-.86,3.07,3.07,0,0,0,1.08-2.54,3,3,0,0,0-1.14-2.58,5.46,5.46,0,0,0-3.33-.86h-3.8Zm0,1.26v7.47h4.77a4.65,4.65,0,0,0,3.14-1A3.46,3.46,0,0,0,141.69,39a3.63,3.63,0,0,0-1-2.67,4.07,4.07,0,0,0-3-1Z"/><path class="cls-3" d="M214.93,35.28h-7.42v7.51h8.55l.11-2.71h1.32v4H204V42.95l2-.16V27.21L204,27V25.94h13.42v4h-1.32L216,27.21h-8.49V34h7.42Z"/><path class="cls-3" d="M282,26a6.93,6.93,0,0,1,4.47,1.27A4.45,4.45,0,0,1,288,30.89a4.19,4.19,0,0,1-.83,2.55,4.66,4.66,0,0,1-2.35,1.64,3.94,3.94,0,0,1,2.42,1.51,4.77,4.77,0,0,1,.74,2.74V41a2.66,2.66,0,0,0,.3,1.42,1.09,1.09,0,0,0,.91.5l.61,0V44h-.94a2,2,0,0,1-1.84-.89A4.28,4.28,0,0,1,286.5,41v-1.6a3.36,3.36,0,0,0-1.05-2.6,4.3,4.3,0,0,0-2.93-1H278v7l2,.17V44h-5.53V43l2-.17V27.22l-2-.17V26Zm-4,8.53h3.84a5.39,5.39,0,0,0,3.58-1,3.3,3.3,0,0,0,1.13-2.62,3.34,3.34,0,0,0-1.13-2.7,5.17,5.17,0,0,0-3.41-1h-4Z"/></g></g></svg>