<svg xmlns="http://www.w3.org/2000/svg" viewBox="0 0 72.37 72.79"><defs><style>.cls-1{fill:#f5f5f5;}.cls-2{fill:#bababa;}</style></defs><title>nubeL</title><g id="Capa_2" data-name="Capa 2"><g id="Catalogo_productos" data-name="Catalogo productos"><path class="cls-1" d="M49.45,12.57a21.1,21.1,0,0,0-.29-2.75l6.11-2L43.65,1.15h0C40.21-.72,35.52-.37,30.34,2.61c-10.22,5.92-18.59,20.05-19.07,32C4.88,39.44,0,48.62,0,56.3v.31c0,4.25,1.5,7.23,3.91,8.63L15.65,72,47.4,44.63C54.76,40.37,60.72,30,60.72,21.55v-.3C60.72,13.56,55.83,10,49.45,12.57Z"/><path class="cls-2" d="M61.1,19.25C60.61,7.85,52.26,3.38,42,9.28s-18.62,20-19.11,32C16.55,46.12,11.64,55.3,11.64,63v.31c0,8.48,6,11.93,13.32,7.68L59.05,51.3c7.35-4.24,13.31-14.57,13.31-23.06v-.31C72.37,20.24,67.48,16.71,61.1,19.25Z"/></g></g></svg>