<svg xmlns="http://www.w3.org/2000/svg" viewBox="0 0 74.16 74.6"><defs><style>.cls-1{fill:#bababa;}.cls-2{fill:#e7e7e7;}</style></defs><title>nubeC</title><g id="Capa_2" data-name="Capa 2"><g id="Catalogo_productos" data-name="Catalogo productos"><path class="cls-1" d="M23.48,12.88a21.65,21.65,0,0,1,.29-2.82L17.52,8,29.42,1.18h0C32.95-.74,37.76-.37,43.06,2.67,53.53,8.74,62.12,23.22,62.6,35.48c6.55,4.94,11.55,14.34,11.55,22.22V58c0,4.36-1.54,7.4-4,8.84l-12,6.89-32.53-28C18,41.37,11.93,30.79,11.93,22.09v-.31C11.93,13.9,16.94,10.28,23.48,12.88Z"/><path class="cls-2" d="M11.54,19.73C12,8,20.6,3.46,31.1,9.51S50.17,30,50.68,42.32c6.52,4.94,11.54,14.35,11.54,22.22v.32c0,8.69-6.11,12.22-13.65,7.87L13.64,52.57C6.1,48.22,0,37.64,0,28.94v-.32C0,20.74,5,17.12,11.54,19.73Z"/></g></g></svg>