<svg xmlns="http://www.w3.org/2000/svg" viewBox="0 0 110.83 111.49"><defs><style>.cls-1{fill:#bababa;}.cls-2{fill:#f0f0f0;}</style></defs><title>nubeR</title><g id="Capa_2" data-name="Capa 2"><g id="Catalogo_productos" data-name="Catalogo productos"><path class="cls-1" d="M35.1,19.25A32.35,32.35,0,0,1,35.53,15l-9.36-3.1L44,1.77h0C49.24-1.1,56.43-.56,64.35,4,80,13.06,92.84,34.7,93.56,53c9.78,7.38,17.27,21.43,17.27,33.2v.48c0,6.51-2.3,11.06-6,13.21l-18,10.3L38.24,68.35C27,61.83,17.82,46,17.82,33v-.47C17.82,20.77,25.31,15.37,35.1,19.25Z"/><path class="cls-2" d="M17.25,29.48C18,12,30.78,5.18,46.48,14.22s28.5,30.69,29.26,49C85.49,70.63,93,84.69,93,96.45v.48c0,13-9.14,18.27-20.4,11.77L20.38,78.56C9.12,72.06,0,56.25,0,43.26v-.48C0,31,7.49,25.59,17.25,29.48Z"/></g></g></svg>