<svg xmlns="http://www.w3.org/2000/svg" viewBox="0 0 24 24.03"><defs><style>.cls-1{fill:#fff;}</style></defs><title>phone</title><g id="Capa_2" data-name="Capa 2"><g id="Footer"><path class="cls-1" d="M19,14.89a2.36,2.36,0,0,0-1.71-.79,2.44,2.44,0,0,0-1.73.78l-1.6,1.6-.39-.2c-.18-.09-.36-.18-.5-.27a17.42,17.42,0,0,1-4.17-3.8A10.28,10.28,0,0,1,7.49,10c.42-.38.8-.78,1.18-1.16l.43-.43a2.33,2.33,0,0,0,0-3.51L7.71,3.56l-.47-.48c-.3-.31-.62-.64-1-.94a2.4,2.4,0,0,0-1.7-.75,2.48,2.48,0,0,0-1.72.75h0L1.12,3.89A3.71,3.71,0,0,0,0,6.24,8.89,8.89,0,0,0,.67,10a21.84,21.84,0,0,0,3.88,6.47,23.87,23.87,0,0,0,7.95,6.22A12.38,12.38,0,0,0,17,24h.32a3.82,3.82,0,0,0,2.93-1.26l0,0a11.53,11.53,0,0,1,.89-.92c.22-.21.44-.43.66-.65a2.53,2.53,0,0,0,.77-1.76,2.44,2.44,0,0,0-.78-1.74Zm1.82,5.34h0c-.2.21-.4.41-.62.62a13.34,13.34,0,0,0-1,1,2.45,2.45,0,0,1-1.91.81h-.23a11,11,0,0,1-4-1.19,22.53,22.53,0,0,1-7.49-5.86A20.59,20.59,0,0,1,2,9.53a7.24,7.24,0,0,1-.57-3.18,2.33,2.33,0,0,1,.7-1.51L3.82,3.12a1.15,1.15,0,0,1,.77-.36,1.09,1.09,0,0,1,.74.36l0,0c.31.29.6.59.91.91l.48.49L8.13,5.92a1,1,0,0,1,0,1.57l-.44.44c-.43.44-.83.84-1.27,1.24l0,0a1,1,0,0,0-.26,1.15l0,0a11.12,11.12,0,0,0,1.64,2.67h0a18.62,18.62,0,0,0,4.5,4.1,6.93,6.93,0,0,0,.62.34c.18.09.36.18.5.27l.06,0a1.1,1.1,0,0,0,.5.13,1.08,1.08,0,0,0,.77-.35l1.73-1.73a1.15,1.15,0,0,1,.77-.38,1,1,0,0,1,.73.37h0l2.8,2.8A1,1,0,0,1,20.79,20.23Z"/><path class="cls-1" d="M13,5.72A6.53,6.53,0,0,1,18.29,11a.68.68,0,0,0,.67.57h.12a.69.69,0,0,0,.56-.79,7.89,7.89,0,0,0-6.43-6.43.69.69,0,0,0-.79.56A.68.68,0,0,0,13,5.72Z"/><path class="cls-1" d="M24,10.6A13,13,0,0,0,13.4,0a.68.68,0,1,0-.22,1.35,11.61,11.61,0,0,1,9.47,9.47.68.68,0,0,0,.67.57h.12A.67.67,0,0,0,24,10.6Z"/></g></g></svg>