<svg xmlns="http://www.w3.org/2000/svg" viewBox="0 0 18 24"><defs><style>.cls-1{fill:#fff;}</style></defs><title>ubication</title><g id="Capa_2" data-name="Capa 2"><g id="Footer"><path class="cls-1" d="M17.95,23.15l-3.16-6.69a.59.59,0,0,0-.3-.29l-1.57-.7,2.73-4.57,0,0a7.47,7.47,0,0,0-1.41-8.71A7.47,7.47,0,0,0,2.35,10.86l0,0L5.1,15.47l-1.58.7a.59.59,0,0,0-.29.29L.06,23.15a.59.59,0,0,0,.78.79l4-1.76,4,1.76a.59.59,0,0,0,.48,0l4-1.76,4,1.76a.59.59,0,0,0,.78-.79ZM3.4,10.31a6.21,6.21,0,0,1-.68-2.88A6.31,6.31,0,0,1,8.91,1.19a6.28,6.28,0,0,1,5.69,9.12L9.51,18.85a.59.59,0,0,1-1,0ZM13.45,21A.59.59,0,0,0,13,21L9,22.76,5,21a.59.59,0,0,0-.48,0L1.81,22.22,4.2,17.17l1.51-.67,1.77,3a1.78,1.78,0,0,0,3.05,0l1.77-3,1.51.67,2.39,5.05Z"/><path class="cls-1" d="M9,4.76a2.7,2.7,0,1,0,2.7,2.7A2.71,2.71,0,0,0,9,4.76ZM9,9a1.52,1.52,0,1,1,1.52-1.52A1.52,1.52,0,0,1,9,9Z"/></g></g></svg>